<svg width="320" height="320" viewBox="0 0 320 320" fill="none" xmlns="http://www.w3.org/2000/svg">
<path d="M160.762 32.8383C159.059 34.6875 157.862 36.9448 157.286 39.3919C156.028 37.6917 154.191 36.5109 152.122 36.0723C150.053 35.6337 147.894 35.9676 146.054 37.0111C145.694 32.9641 143.894 29.1807 140.981 26.3482C138.068 23.5157 134.236 21.822 130.181 21.5749C126.125 21.3278 122.116 22.5436 118.881 25.0015C115.646 27.4594 113.399 30.9962 112.55 34.9695C110.558 33.01 107.898 31.8783 105.105 31.8023C102.311 31.7263 99.5933 32.7117 97.4976 34.5599" stroke="#263238" stroke-miterlimit="10"/>
<path d="M207.021 14.9374C201.373 14.0535 195.6 15.3627 190.886 18.5967C186.172 21.8308 182.873 26.7449 181.664 32.3326C179.365 30.0652 176.376 28.628 173.169 28.2479C169.963 27.8678 166.721 28.5664 163.955 30.2334" stroke="#263238" stroke-miterlimit="10"/>
<path d="M219.603 21.4651C218.023 19.8342 216.204 18.4531 214.208 17.3691" stroke="#263238" stroke-miterlimit="10"/>
<path d="M211.539 43.2509H252.909C252.381 42.3762 251.674 41.6228 250.835 41.0401C249.996 40.4573 249.043 40.0584 248.039 39.8693C247.035 39.6802 246.002 39.7052 245.008 39.9428C244.014 40.1803 243.082 40.625 242.272 41.2477C241.724 39.6622 240.834 38.2166 239.666 37.0132C238.497 35.8098 237.078 34.878 235.51 34.2839C233.941 33.6897 232.261 33.4477 230.588 33.575C228.915 33.7023 227.291 34.1958 225.83 35.0205C225.465 30.961 223.995 27.079 221.581 23.7949" stroke="#263238" stroke-miterlimit="10"/>
<path d="M95.7696 36.48C94.458 38.3392 93.7558 40.5598 93.76 42.8352C93.76 42.9696 93.76 43.104 93.76 43.2448H203.398" stroke="#263238" stroke-miterlimit="10"/>
<path d="M242.56 50.6172C241.25 49.4985 239.671 48.7391 237.98 48.4134C236.288 48.0876 234.54 48.2067 232.908 48.7588C231.276 49.311 229.816 50.2774 228.669 51.5635C227.523 52.8495 226.73 54.4112 226.368 56.0956C225.549 55.289 224.53 54.715 223.416 54.4326C222.302 54.1503 221.133 54.1698 220.029 54.4892C218.925 54.8085 217.926 55.4162 217.134 56.2497C216.343 57.0832 215.788 58.1125 215.526 59.2316C214.969 58.4813 214.157 57.9601 213.243 57.7656C212.328 57.5712 211.375 57.717 210.56 58.1756C210.398 56.3761 209.597 54.6943 208.301 53.4352C207.005 52.1761 205.301 51.4233 203.498 51.3134C201.695 51.2034 199.912 51.7436 198.472 52.8359C197.033 53.9283 196.033 55.5003 195.654 57.2668C194.964 56.575 194.084 56.1048 193.125 55.9165C192.166 55.7282 191.173 55.8302 190.273 56.2096C189.372 56.589 188.606 57.2285 188.071 58.0462C187.536 58.8639 187.257 59.8226 187.27 60.7996C187.27 60.8636 187.27 60.9212 187.27 60.9852H258.048C257.817 60.5925 257.504 60.2537 257.131 59.9916C256.759 59.7294 256.334 59.5499 255.886 59.4651C255.439 59.3802 254.978 59.392 254.535 59.4997C254.092 59.6073 253.677 59.8083 253.318 60.0892C253.075 59.3841 252.68 58.7412 252.16 58.2061C251.641 57.671 251.01 57.2568 250.312 56.9929C249.615 56.729 248.868 56.6219 248.124 56.6792C247.38 56.7365 246.659 56.9568 246.01 57.3244C245.94 56.5807 245.79 55.8468 245.562 55.1356" stroke="#263238" stroke-miterlimit="10"/>
<path d="M101.344 108.877C100.033 107.761 98.4545 107.005 96.7636 106.682C95.0728 106.358 93.327 106.479 91.6965 107.031C90.0661 107.584 88.6067 108.549 87.4608 109.834C86.3149 111.119 85.5217 112.679 85.1584 114.362C84.3397 113.555 83.3209 112.981 82.2068 112.699C81.0927 112.416 79.9235 112.436 78.8194 112.755C77.7153 113.074 76.7162 113.682 75.9249 114.516C75.1335 115.349 74.5785 116.378 74.3168 117.497C73.7594 116.74 72.9431 116.213 72.0229 116.017C71.1027 115.821 70.1426 115.97 69.3248 116.435C69.1767 114.623 68.3801 112.926 67.0811 111.654C65.7822 110.382 64.0682 109.622 62.2537 109.512C60.4392 109.403 58.6461 109.951 57.2034 111.057C55.7607 112.163 54.7653 113.752 54.4 115.533C53.4852 114.623 52.2467 114.115 50.9568 114.118C49.6588 114.128 48.4175 114.652 47.5038 115.574C46.5901 116.496 46.0783 117.742 46.08 119.04C46.0768 119.1 46.0768 119.159 46.08 119.219H116.845C116.613 118.827 116.3 118.489 115.927 118.227C115.554 117.966 115.129 117.787 114.682 117.703C114.234 117.618 113.773 117.631 113.331 117.739C112.888 117.847 112.474 118.048 112.115 118.329C111.867 117.627 111.469 116.987 110.949 116.455C110.428 115.922 109.797 115.51 109.101 115.246C108.404 114.982 107.659 114.873 106.916 114.927C106.173 114.981 105.451 115.197 104.8 115.558C104.737 114.816 104.586 114.083 104.352 113.376" stroke="#263238" stroke-miterlimit="10"/>
<path d="M114.88 283.661C118.08 284.621 127.04 286.221 120.96 286.221C114.88 286.221 106.56 287.501 95.68 287.821C84.8 288.141 87.04 288.141 75.52 286.221C64 284.301 56.32 286.861 52.8 285.581C49.28 284.301 64 284.301 70.4 282.381C76.8 280.461 83.2 276.941 94.08 280.781C104.96 284.621 108.48 282.061 108.48 282.061C108.48 282.061 111.68 282.701 114.88 283.661ZM166.4 294.861C166.4 294.861 151.36 289.421 144.96 290.381C138.56 291.341 135.68 294.221 130.56 294.861C126.84 295.27 123.102 295.484 119.36 295.501C119.36 295.501 129.28 297.101 134.72 298.061C140.16 299.021 149.44 298.061 156.8 297.421C164.16 296.781 169.92 296.781 170.88 296.781C171.84 296.781 166.4 294.861 166.4 294.861ZM52.48 298.701C54.08 299.021 73.92 299.661 81.28 299.341C88.64 299.021 104.32 298.381 101.44 297.741C98.56 297.101 85.76 294.541 76.8 293.581C67.84 292.621 50.56 296.781 50.56 296.781C48 298.701 50.88 298.381 52.48 298.701ZM193.28 291.981C193.28 291.981 180.16 290.061 172.48 289.741C167.608 289.598 162.745 290.247 158.08 291.661C158.08 291.661 170.88 293.901 175.36 293.901C179.84 293.901 187.84 293.261 191.36 293.581C194.88 293.901 198.4 294.861 201.6 294.221C204.8 293.581 200.64 290.061 193.28 291.981ZM201.28 284.301C201.28 284.301 216.96 284.621 225.6 284.941C234.24 285.261 234.24 284.941 221.76 283.021C209.28 281.101 197.76 283.021 201.28 284.301ZM144.32 273.741C144.32 273.741 120.32 273.741 122.56 275.021C124.8 276.301 135.04 276.941 140.8 276.621C146.56 276.301 153.6 274.381 144.32 273.741ZM166.72 281.741C166.72 281.741 156.48 278.541 151.68 279.181C146.88 279.821 141.76 281.421 135.36 282.381C128.96 283.341 128.64 283.341 130.24 283.341C131.84 283.341 141.44 282.701 150.4 282.701C159.36 282.701 168 285.581 166.72 281.741ZM240.96 291.341C240.96 291.341 229.12 294.221 221.76 295.501C214.4 296.781 197.44 295.821 200 297.741C202.56 299.661 212.16 296.781 227.52 297.421C242.88 298.061 250.24 296.141 247.36 294.861C244.48 293.581 245.44 292.621 240.96 291.341ZM76.48 272.781C71.36 274.381 59.52 277.261 48.32 279.821C37.12 282.381 58.24 281.421 66.56 280.461C74.88 279.501 86.08 276.941 90.24 275.341C94.4 273.741 87.04 269.261 87.04 269.261C80.96 268.301 81.6 271.181 76.48 272.781Z" fill="#0090EB"/>
<path opacity="0.5" d="M114.88 283.661C118.08 284.621 127.04 286.221 120.96 286.221C114.88 286.221 106.56 287.501 95.68 287.821C84.8 288.141 87.04 288.141 75.52 286.221C64 284.301 56.32 286.861 52.8 285.581C49.28 284.301 64 284.301 70.4 282.381C76.8 280.461 83.2 276.941 94.08 280.781C104.96 284.621 108.48 282.061 108.48 282.061C108.48 282.061 111.68 282.701 114.88 283.661ZM166.4 294.861C166.4 294.861 151.36 289.421 144.96 290.381C138.56 291.341 135.68 294.221 130.56 294.861C126.84 295.27 123.102 295.484 119.36 295.501C119.36 295.501 129.28 297.101 134.72 298.061C140.16 299.021 149.44 298.061 156.8 297.421C164.16 296.781 169.92 296.781 170.88 296.781C171.84 296.781 166.4 294.861 166.4 294.861ZM52.48 298.701C54.08 299.021 73.92 299.661 81.28 299.341C88.64 299.021 104.32 298.381 101.44 297.741C98.56 297.101 85.76 294.541 76.8 293.581C67.84 292.621 50.56 296.781 50.56 296.781C48 298.701 50.88 298.381 52.48 298.701ZM193.28 291.981C193.28 291.981 180.16 290.061 172.48 289.741C167.608 289.598 162.745 290.247 158.08 291.661C158.08 291.661 170.88 293.901 175.36 293.901C179.84 293.901 187.84 293.261 191.36 293.581C194.88 293.901 198.4 294.861 201.6 294.221C204.8 293.581 200.64 290.061 193.28 291.981ZM201.28 284.301C201.28 284.301 216.96 284.621 225.6 284.941C234.24 285.261 234.24 284.941 221.76 283.021C209.28 281.101 197.76 283.021 201.28 284.301ZM144.32 273.741C144.32 273.741 120.32 273.741 122.56 275.021C124.8 276.301 135.04 276.941 140.8 276.621C146.56 276.301 153.6 274.381 144.32 273.741ZM166.72 281.741C166.72 281.741 156.48 278.541 151.68 279.181C146.88 279.821 141.76 281.421 135.36 282.381C128.96 283.341 128.64 283.341 130.24 283.341C131.84 283.341 141.44 282.701 150.4 282.701C159.36 282.701 168 285.581 166.72 281.741ZM240.96 291.341C240.96 291.341 229.12 294.221 221.76 295.501C214.4 296.781 197.44 295.821 200 297.741C202.56 299.661 212.16 296.781 227.52 297.421C242.88 298.061 250.24 296.141 247.36 294.861C244.48 293.581 245.44 292.621 240.96 291.341ZM76.48 272.781C71.36 274.381 59.52 277.261 48.32 279.821C37.12 282.381 58.24 281.421 66.56 280.461C74.88 279.501 86.08 276.941 90.24 275.341C94.4 273.741 87.04 269.261 87.04 269.261C80.96 268.301 81.6 271.181 76.48 272.781Z" fill="white"/>
<path d="M91.84 283.987C91.84 283.987 107.558 281.58 116.25 282.784C124.941 283.987 129.242 285.312 137.517 285.312H149.427" stroke="#263238" stroke-miterlimit="10"/>
<path d="M157.376 288.64C157.376 288.64 161.677 287.648 172.928 287.648C184.179 287.648 187.52 288.64 194.112 288.954C200.704 289.267 215.622 289.286 215.622 289.286" stroke="#263238" stroke-miterlimit="10"/>
<path d="M129.92 293.254C129.92 293.254 142.17 286.969 153.754 290.937C165.338 294.905 181.222 293.254 182.214 293.254" stroke="#263238" stroke-miterlimit="10"/>
<path d="M167.635 278.361C167.635 278.361 156.333 276.275 154.035 277.081C151.738 277.888 148.435 277.35 143.475 278.361C139.868 278.996 136.213 279.328 132.55 279.353" stroke="#263238" stroke-miterlimit="10"/>
<path d="M184.32 277.581C184.32 277.581 197.76 277.261 206.08 274.701C214.4 272.141 228.8 279.181 233.6 279.821C238.4 280.461 248.32 281.421 248.32 281.421" stroke="#263238" stroke-miterlimit="10"/>
<path d="M107.52 271.501C101.786 269.8 95.8852 268.727 89.92 268.301C80.32 267.661 72.32 272.141 66.56 272.781C60.8 273.421 50.24 273.421 49.28 273.421" stroke="#263238" stroke-miterlimit="10"/>
<path d="M64 292.301C64 292.301 80.32 290.701 90.88 291.021C101.44 291.341 109.12 294.221 111.68 294.221" stroke="#263238" stroke-miterlimit="10"/>
<path d="M218.88 294.541C218.88 294.541 232 290.381 236.48 290.061C240.96 289.741 251.84 292.301 257.92 292.301" stroke="#263238" stroke-miterlimit="10"/>
<path d="M106.822 208.365C104.331 213.38 102.811 218.822 102.342 224.403C101.498 233.824 104.314 244.8 104.032 246.49C103.75 248.179 103.328 253.242 104.877 257.459C106.426 261.677 113.741 268.013 114.304 269.984C114.867 271.955 115.43 274.342 114.726 275.744C114.022 277.146 110.656 281.466 110.131 282.195C109.882 282.554 110.131 282.195 116.275 282.778C117.677 282.912 117.958 279.405 118.944 277.152C119.93 274.899 122.464 273.632 121.901 271.667C121.338 269.702 118.522 268.429 117.421 264.915C116.32 261.402 116.442 255.347 115.456 250.701C114.925 248.056 114.025 245.498 112.781 243.104C112.781 243.104 114.752 229.741 116.301 227.066C117.85 224.39 120.659 217.779 121.363 213.702C122.067 209.626 117.702 207.232 113.485 206.662C109.267 206.093 106.822 208.365 106.822 208.365Z" fill="#B2B2B2"/>
<mask id="mask0_932_744" style="mask-type:luminance" maskUnits="userSpaceOnUse" x="102" y="206" width="20" height="77">
<path d="M106.822 208.365C104.331 213.38 102.811 218.822 102.342 224.403C101.498 233.824 104.314 244.8 104.032 246.49C103.75 248.179 103.328 253.242 104.877 257.459C106.426 261.677 113.741 268.013 114.304 269.984C114.867 271.955 115.43 274.342 114.726 275.744C114.022 277.146 110.656 281.466 110.131 282.195C109.882 282.554 110.131 282.195 116.275 282.778C117.677 282.912 117.958 279.405 118.944 277.152C119.93 274.899 122.464 273.632 121.901 271.667C121.338 269.702 118.522 268.429 117.421 264.915C116.32 261.402 116.442 255.347 115.456 250.701C114.925 248.056 114.025 245.498 112.781 243.104C112.781 243.104 114.752 229.741 116.301 227.066C117.85 224.39 120.659 217.779 121.363 213.702C122.067 209.626 117.702 207.232 113.485 206.662C109.267 206.093 106.822 208.365 106.822 208.365Z" fill="white"/>
</mask>
<g mask="url(#mask0_932_744)">
<path opacity="0.3" d="M117.37 264.921C116.928 263.329 116.641 261.698 116.512 260.051C113.517 257.913 109.53 253.721 109.683 251.59C109.85 249.241 110.688 246.56 110.688 245.555C110.688 244.55 107.168 247.565 105.152 243.878C103.136 240.192 102.47 222.925 104.512 216.358C106.554 209.792 109.709 209.318 109.709 209.318L107.43 207.897C107.224 208.027 107.029 208.175 106.848 208.339C104.356 213.355 102.836 218.797 102.368 224.377C101.523 233.798 104.339 244.774 104.058 246.464C103.776 248.153 103.354 253.216 104.902 257.433C106.451 261.651 113.766 267.987 114.33 269.958C114.893 271.929 115.456 274.317 114.752 275.718C113.314 278.059 111.754 280.324 110.08 282.502C109.517 283.206 114.867 282.925 116.275 282.784C117.683 282.643 117.958 279.411 118.944 277.158C119.93 274.905 122.464 273.638 121.901 271.673C121.338 269.709 118.496 268.435 117.37 264.921Z" fill="black"/>
</g>
<path d="M106.822 208.365C104.331 213.38 102.811 218.822 102.342 224.403C101.498 233.824 104.314 244.8 104.032 246.49C103.75 248.179 103.328 253.242 104.877 257.459C106.426 261.677 113.741 268.013 114.304 269.984C114.867 271.955 115.43 274.342 114.726 275.744C114.022 277.146 110.656 281.466 110.131 282.195C109.882 282.554 110.131 282.195 116.275 282.778C117.677 282.912 117.958 279.405 118.944 277.152C119.93 274.899 122.464 273.632 121.901 271.667C121.338 269.702 118.522 268.429 117.421 264.915C116.32 261.402 116.442 255.347 115.456 250.701C114.925 248.056 114.025 245.498 112.781 243.104C112.781 243.104 114.752 229.741 116.301 227.066C117.85 224.39 120.659 217.779 121.363 213.702C122.067 209.626 117.702 207.232 113.485 206.662C109.267 206.093 106.822 208.365 106.822 208.365Z" stroke="#263238" stroke-linecap="round" stroke-linejoin="round"/>
<path d="M124.966 214.4C124.966 214.4 131.162 231.002 134.566 236.205C137.971 241.408 139.635 243.098 139.635 243.098C138.892 245.958 138.892 248.961 139.635 251.821C140.915 256.301 144.115 265.19 144.979 267.181C145.843 269.171 146.95 271.264 147.091 273.37C147.207 274.795 147.442 276.208 147.795 277.594C147.795 277.594 152.32 277.69 154.406 276.89C155.226 276.576 149.76 270.138 149.197 266.899C148.634 263.661 151.027 249.734 149.76 246.362C148.493 242.989 146.56 238.624 146.56 238.624C146.56 238.624 144.448 219.629 142.195 213.862C139.942 208.096 139.104 206.547 138.822 205.843C138.541 205.139 135.866 205.28 131.93 207.123C127.994 208.966 124.966 214.4 124.966 214.4Z" fill="#B2B2B2"/>
<mask id="mask1_932_744" style="mask-type:luminance" maskUnits="userSpaceOnUse" x="124" y="205" width="31" height="73">
<path d="M124.966 214.4C124.966 214.4 131.162 231.002 134.566 236.205C137.971 241.408 139.635 243.098 139.635 243.098C138.892 245.958 138.892 248.961 139.635 251.821C140.915 256.301 144.115 265.19 144.979 267.181C145.843 269.171 146.95 271.264 147.091 273.37C147.207 274.795 147.442 276.208 147.795 277.594C147.795 277.594 152.32 277.69 154.406 276.89C155.226 276.576 149.76 270.138 149.197 266.899C148.634 263.661 151.027 249.734 149.76 246.362C148.493 242.989 146.56 238.624 146.56 238.624C146.56 238.624 144.448 219.629 142.195 213.862C139.942 208.096 139.104 206.547 138.822 205.843C138.541 205.139 135.866 205.28 131.93 207.123C127.994 208.966 124.966 214.4 124.966 214.4Z" fill="white"/>
</mask>
<g mask="url(#mask1_932_744)">
<path opacity="0.3" d="M149.715 256.64C147.61 252.512 145.101 247.949 144.89 246.566C144.55 244.384 146.566 240.864 144.723 241.203C142.88 241.542 140.698 240.531 138.323 234.662C135.949 228.794 129.773 211.526 129.773 211.526L126.515 211.981C125.942 212.761 125.416 213.576 124.941 214.419C124.941 214.419 131.136 231.021 134.541 236.224C137.946 241.427 139.61 243.117 139.61 243.117C138.866 245.977 138.866 248.98 139.61 251.84C140.89 256.32 144.09 265.21 144.954 267.2C145.818 269.19 146.925 271.283 147.066 273.389C147.181 274.814 147.416 276.227 147.77 277.613L154.381 276.909C154.381 276.909 149.76 270.125 149.165 266.88C148.883 265.267 149.344 260.954 149.715 256.64Z" fill="black"/>
</g>
<path d="M124.966 214.4C124.966 214.4 131.162 231.002 134.566 236.205C137.971 241.408 139.635 243.098 139.635 243.098C138.892 245.958 138.892 248.961 139.635 251.821C140.915 256.301 144.115 265.19 144.979 267.181C145.843 269.171 146.95 271.264 147.091 273.37C147.207 274.795 147.442 276.208 147.795 277.594C147.795 277.594 152.32 277.69 154.406 276.89C155.226 276.576 149.76 270.138 149.197 266.899C148.634 263.661 151.027 249.734 149.76 246.362C148.493 242.989 146.56 238.624 146.56 238.624C146.56 238.624 144.448 219.629 142.195 213.862C139.942 208.096 139.104 206.547 138.822 205.843C138.541 205.139 135.866 205.28 131.93 207.123C127.994 208.966 124.966 214.4 124.966 214.4Z" stroke="#263238" stroke-linecap="round" stroke-linejoin="round"/>
<path d="M109.491 196.685L106.118 209.625C106.118 209.625 112.73 210.048 115.827 212.301C118.925 214.553 120.749 215.68 120.749 215.68C120.749 215.68 124.128 215.961 125.229 215.68C126.33 215.398 128.326 212.582 131.846 210.189C134.172 208.679 136.743 207.585 139.443 206.957L135.36 195.437C135.36 195.437 127.763 197.997 121.152 197.549C114.541 197.101 109.491 196.685 109.491 196.685Z" fill="#0090EB"/>
<mask id="mask2_932_744" style="mask-type:luminance" maskUnits="userSpaceOnUse" x="106" y="195" width="34" height="21">
<path d="M109.491 196.685L106.118 209.625C106.118 209.625 112.73 210.048 115.827 212.301C118.925 214.553 120.749 215.68 120.749 215.68C120.749 215.68 124.128 215.961 125.229 215.68C126.33 215.398 128.326 212.582 131.846 210.189C134.172 208.679 136.743 207.585 139.443 206.957L135.36 195.437C135.36 195.437 127.763 197.997 121.152 197.549C114.541 197.101 109.491 196.685 109.491 196.685Z" fill="white"/>
</mask>
<g mask="url(#mask2_932_744)">
<path opacity="0.3" d="M135.347 208.313C135.43 208.153 135.379 208.064 135.136 208.064C133.53 208.064 131.053 209.817 128.134 211.712C125.216 213.606 123.174 212.877 121.427 211.129C119.68 209.382 118.067 210.253 116.173 209.67C114.278 209.088 109.171 206.47 109.171 205.145C109.171 203.821 114.131 206.605 115.443 206.169C116.755 205.734 110.483 203.833 111.507 202.969C112.531 202.105 120.115 202.969 122.739 202.246C125.363 201.523 113.402 201.369 111.942 200.787C110.483 200.205 123.462 200.493 123.462 200.493L114.56 197.075C111.475 196.851 109.51 196.685 109.51 196.685L106.138 209.625C106.138 209.625 112.749 210.048 115.846 212.301C118.944 214.553 120.768 215.68 120.768 215.68C120.768 215.68 124.147 215.961 125.248 215.68C126.349 215.398 128.346 212.582 131.866 210.189C132.962 209.451 134.128 208.823 135.347 208.313Z" fill="black"/>
</g>
<path d="M109.491 196.685L106.118 209.625C106.118 209.625 112.73 210.048 115.827 212.301C118.925 214.553 120.749 215.68 120.749 215.68C120.749 215.68 124.128 215.961 125.229 215.68C126.33 215.398 128.326 212.582 131.846 210.189C134.172 208.679 136.743 207.585 139.443 206.957L135.36 195.437C135.36 195.437 127.763 197.997 121.152 197.549C114.541 197.101 109.491 196.685 109.491 196.685Z" stroke="#263238" stroke-linecap="round" stroke-linejoin="round"/>
<path d="M110.477 149.12L111.885 157.984C111.885 157.984 106.541 162.343 103.302 163.744C100.064 165.146 96.128 165.434 94.2976 168.531C93.1209 170.679 92.3139 173.009 91.9104 175.424C91.9104 175.424 88.2496 180.909 86.56 184.992C84.8704 189.075 85.9968 191.744 89.7984 190.899C93.6 190.055 103.162 176.551 103.162 176.551C103.162 176.551 108.653 188.365 108.653 190.631C108.653 192.896 108.928 196.391 109.632 198.368C110.336 200.346 123.712 201.6 129.331 199.354C134.95 197.107 135.379 195.975 135.379 195.975C135.379 195.975 133.971 185.005 134.816 183.034C135.661 181.063 138.054 170.368 138.054 170.368C138.054 170.368 144.384 177.965 145.37 179.968C146.355 181.971 145.51 187.424 146.074 192.071C146.637 196.717 147.424 202.951 147.309 203.392C147.194 203.834 144.525 205.997 144.384 207.405C144.243 208.813 145.229 210.496 145.37 211.059C145.51 211.623 146.918 211.2 147.622 210.919C148.326 210.637 151.277 210.637 151.699 209.37C152.122 208.103 152.403 207.968 152.403 206.279C152.29 204.729 152.017 203.196 151.59 201.703C151.59 201.703 153.952 185.735 153.389 180.954C152.826 176.173 151.418 174.765 150.291 172.634C149.165 170.503 145.811 165.178 144.666 163.629C143.279 161.611 141.248 160.124 138.906 159.411C135.667 158.285 134.618 159.194 130.982 158.554C128.066 157.962 125.205 157.12 122.432 156.039L121.882 148.999L110.477 149.12Z" fill="#B2B2B2"/>
<mask id="mask3_932_744" style="mask-type:luminance" maskUnits="userSpaceOnUse" x="85" y="148" width="69" height="64">
<path d="M110.477 149.12L111.885 157.984C111.885 157.984 106.541 162.343 103.302 163.744C100.064 165.146 96.128 165.434 94.2976 168.531C93.1209 170.679 92.3139 173.009 91.9104 175.424C91.9104 175.424 88.2496 180.909 86.56 184.992C84.8704 189.075 85.9968 191.744 89.7984 190.899C93.6 190.055 103.162 176.551 103.162 176.551C103.162 176.551 108.653 188.365 108.653 190.631C108.653 192.896 108.928 196.391 109.632 198.368C110.336 200.346 123.712 201.6 129.331 199.354C134.95 197.107 135.379 195.975 135.379 195.975C135.379 195.975 133.971 185.005 134.816 183.034C135.661 181.063 138.054 170.368 138.054 170.368C138.054 170.368 144.384 177.965 145.37 179.968C146.355 181.971 145.51 187.424 146.074 192.071C146.637 196.717 147.424 202.951 147.309 203.392C147.194 203.834 144.525 205.997 144.384 207.405C144.243 208.813 145.229 210.496 145.37 211.059C145.51 211.623 146.918 211.2 147.622 210.919C148.326 210.637 151.277 210.637 151.699 209.37C152.122 208.103 152.403 207.968 152.403 206.279C152.29 204.729 152.017 203.196 151.59 201.703C151.59 201.703 153.952 185.735 153.389 180.954C152.826 176.173 151.418 174.765 150.291 172.634C149.165 170.503 145.811 165.178 144.666 163.629C143.279 161.611 141.248 160.124 138.906 159.411C135.667 158.285 134.618 159.194 130.982 158.554C128.066 157.962 125.205 157.12 122.432 156.039L121.882 148.999L110.477 149.12Z" fill="white"/>
</mask>
<g mask="url(#mask3_932_744)">
<path opacity="0.3" d="M121.875 148.992L110.477 149.133L111.885 157.996C111.885 157.996 106.541 162.355 103.303 163.756C100.064 165.158 96.1282 165.446 94.2978 168.544C93.1211 170.691 92.3141 173.021 91.9106 175.436C91.9106 175.436 88.2498 180.921 86.5602 185.005C84.9154 188.985 85.9522 191.616 89.5362 190.956C88.6594 188.326 87.9298 185.331 89.0626 183.347C91.0722 179.827 96.7746 177.817 98.1122 176.646C99.4498 175.475 94.9122 176.307 94.9122 175.136C94.9122 173.964 95.4114 170.272 97.0882 167.929C98.765 165.587 104.467 164.729 108.659 162.726C112.851 160.723 113.517 157.529 113.517 157.529C113.517 157.529 114.023 157.868 118.215 156.889C119.709 156.565 121.111 155.909 122.317 154.969L121.875 148.992Z" fill="black"/>
<path opacity="0.3" d="M127.283 199.616C125.946 199.789 122.253 199.283 120.077 199.283C117.901 199.283 114.374 198.445 113.677 195.763C112.979 193.082 114.688 184.531 114.854 183.187C115.021 181.843 110.72 183.04 108.339 180.48C105.958 177.92 104.499 174.445 104.499 173.606C104.499 172.768 103.174 176.544 103.174 176.544C103.174 176.544 108.666 188.358 108.666 190.624C108.666 192.89 108.941 196.384 109.645 198.362C110.138 199.744 116.851 200.774 122.765 200.493C125.37 200.032 128.154 199.507 127.283 199.616Z" fill="black"/>
<path opacity="0.3" d="M145.555 207.667C145.056 206.995 147.904 203.309 148.576 202.304C149.248 201.299 149.082 185.702 149.082 182.688C149.082 179.673 148.41 178.157 146.061 176.147C143.712 174.137 139.859 167.936 138.682 165.907C137.504 163.878 138.042 170.387 138.042 170.387C138.042 170.387 144.371 177.984 145.357 179.987C146.342 181.99 145.498 187.443 146.061 192.089C146.624 196.736 147.411 202.969 147.296 203.411C147.181 203.853 144.512 206.016 144.371 207.424C144.23 208.832 145.216 210.515 145.357 211.078C145.498 211.641 146.906 211.219 147.61 210.937C148.314 210.656 151.264 210.656 151.686 209.389C151.84 208.928 151.974 208.621 152.083 208.326C151.13 206.509 146.022 208.281 145.555 207.667Z" fill="black"/>
<path opacity="0.3" d="M123.763 178.829C124.789 179.665 125.857 180.449 126.963 181.177C128.301 182.016 129.811 181.683 127.968 178.829C126.125 175.974 122.938 172.96 122.605 174.989C122.272 177.017 123.763 178.829 123.763 178.829Z" fill="black"/>
<path opacity="0.3" d="M129.466 160.723C129.466 160.723 123.43 163.571 122.925 163.571C122.419 163.571 121.754 161.894 122.426 161.562C123.098 161.229 129.466 160.723 129.466 160.723Z" fill="black"/>
</g>
<path d="M110.477 149.12L111.885 157.984C111.885 157.984 106.541 162.343 103.302 163.744C100.064 165.146 96.128 165.434 94.2976 168.531C93.1209 170.679 92.3139 173.009 91.9104 175.424C91.9104 175.424 88.2496 180.909 86.56 184.992C84.8704 189.075 85.9968 191.744 89.7984 190.899C93.6 190.055 103.162 176.551 103.162 176.551C103.162 176.551 108.653 188.365 108.653 190.631C108.653 192.896 108.928 196.391 109.632 198.368C110.336 200.346 123.712 201.6 129.331 199.354C134.95 197.107 135.379 195.975 135.379 195.975C135.379 195.975 133.971 185.005 134.816 183.034C135.661 181.063 138.054 170.368 138.054 170.368C138.054 170.368 144.384 177.965 145.37 179.968C146.355 181.971 145.51 187.424 146.074 192.071C146.637 196.717 147.424 202.951 147.309 203.392C147.194 203.834 144.525 205.997 144.384 207.405C144.243 208.813 145.229 210.496 145.37 211.059C145.51 211.623 146.918 211.2 147.622 210.919C148.326 210.637 151.277 210.637 151.699 209.37C152.122 208.103 152.403 207.968 152.403 206.279C152.29 204.729 152.017 203.196 151.59 201.703C151.59 201.703 153.952 185.735 153.389 180.954C152.826 176.173 151.418 174.765 150.291 172.634C149.165 170.503 145.811 165.178 144.666 163.629C143.279 161.611 141.248 160.124 138.906 159.411C135.667 158.285 134.618 159.194 130.982 158.554C128.066 157.962 125.205 157.12 122.432 156.039L121.882 148.999L110.477 149.12Z" stroke="#263238" stroke-linecap="round" stroke-linejoin="round"/>
<path d="M119.763 186.413C119.763 186.413 122.72 186.976 123.002 187.693C123.283 188.409 123.706 190.649 123.142 191.776C122.579 192.902 121.594 192.761 121.312 191.776C121.033 190.904 120.704 190.05 120.326 189.216L119.763 186.413Z" fill="#B2B2B2" stroke="#263238" stroke-linecap="round" stroke-linejoin="round"/>
<path d="M91.3472 185.99C91.3472 185.99 100.909 188.666 106.259 188.666C111.61 188.666 113.152 188.102 113.715 187.821C114.278 187.539 117.37 184.166 118.074 184.589C118.778 185.011 122.157 188.102 121.875 189.069C121.594 190.035 119.763 192.166 118.355 192.73C116.947 193.293 114.842 192.026 114.419 191.885C113.997 191.744 110.054 193.165 102.739 193.85C95.424 194.534 89.376 195.962 86.56 194.554C83.744 193.146 84.4544 190.758 84.7296 189.069C85.0255 187.81 85.5505 186.617 86.2784 185.549" fill="#B2B2B2"/>
<mask id="mask4_932_744" style="mask-type:luminance" maskUnits="userSpaceOnUse" x="84" y="184" width="38" height="12">
<path d="M91.3472 185.99C91.3472 185.99 100.909 188.666 106.259 188.666C111.61 188.666 113.152 188.102 113.715 187.821C114.278 187.539 117.37 184.166 118.074 184.589C118.778 185.011 122.157 188.102 121.875 189.069C121.594 190.035 119.763 192.166 118.355 192.73C116.947 193.293 114.842 192.026 114.419 191.885C113.997 191.744 110.054 193.165 102.739 193.85C95.424 194.534 89.376 195.962 86.56 194.554C83.744 193.146 84.4544 190.758 84.7296 189.069C85.0255 187.81 85.5505 186.617 86.2784 185.549" fill="white"/>
</mask>
<g mask="url(#mask4_932_744)">
<path opacity="0.3" d="M106.163 191.065C101.133 191.065 93.5872 190.425 90.7392 189.561C88.2752 188.838 87.9424 186.361 87.8976 185.721L86.2784 185.587C85.5505 186.655 85.0255 187.849 84.7296 189.107C84.4544 190.797 83.7504 193.184 86.56 194.592C89.3696 196 95.424 194.592 102.739 193.888C110.054 193.184 113.997 191.782 114.419 191.923C114.842 192.064 116.717 193.203 118.112 192.838C117.12 192.275 115.552 191.277 115.552 190.585C115.552 189.894 117.741 187.565 119.072 185.408C118.759 185.117 118.426 184.85 118.074 184.608C117.37 184.185 114.278 187.558 113.715 187.84C112.218 190.611 111.187 191.065 106.163 191.065Z" fill="black"/>
</g>
<path d="M91.3472 185.99C91.3472 185.99 100.909 188.666 106.259 188.666C111.61 188.666 113.152 188.102 113.715 187.821C114.278 187.539 117.37 184.166 118.074 184.589C118.778 185.011 122.157 188.102 121.875 189.069C121.594 190.035 119.763 192.166 118.355 192.73C116.947 193.293 114.842 192.026 114.419 191.885C113.997 191.744 110.054 193.165 102.739 193.85C95.424 194.534 89.376 195.962 86.56 194.554C83.744 193.146 84.4544 190.758 84.7296 189.069C85.0255 187.81 85.5505 186.617 86.2784 185.549" stroke="#263238" stroke-linecap="round" stroke-linejoin="round"/>
<path d="M108.23 144.211C108.23 144.211 107.104 144.352 107.245 146.458C107.386 148.563 109.632 149.414 109.632 149.414C109.632 149.414 112.026 151.808 113.574 153.632C115.123 155.456 116.774 156.026 119.482 155.744C122.189 155.462 123.142 154.899 123.706 151.667C124.03 150.141 124.172 148.581 124.128 147.021C124.128 147.021 125.107 147.162 124.966 144.634C124.826 142.106 123.846 141.958 123.846 141.958C123.846 141.958 124.122 138.874 121.446 135.36C118.771 131.846 115.546 131.827 113.011 132.954C110.477 134.08 108.09 135.77 108.09 138.861C108.09 141.952 108.23 144.211 108.23 144.211Z" fill="#B2B2B2"/>
<mask id="mask5_932_744" style="mask-type:luminance" maskUnits="userSpaceOnUse" x="107" y="132" width="18" height="24">
<path d="M108.23 144.211C108.23 144.211 107.104 144.352 107.245 146.458C107.386 148.563 109.632 149.414 109.632 149.414C109.632 149.414 112.026 151.808 113.574 153.632C115.123 155.456 116.774 156.026 119.482 155.744C122.189 155.462 123.142 154.899 123.706 151.667C124.03 150.141 124.172 148.581 124.128 147.021C124.128 147.021 125.107 147.162 124.966 144.634C124.826 142.106 123.846 141.958 123.846 141.958C123.846 141.958 124.122 138.874 121.446 135.36C118.771 131.846 115.546 131.827 113.011 132.954C110.477 134.08 108.09 135.77 108.09 138.861C108.09 141.952 108.23 144.211 108.23 144.211Z" fill="white"/>
</mask>
<g mask="url(#mask5_932_744)">
<path opacity="0.3" d="M118.56 154.368C115.392 153.913 114.637 150.137 112.973 148.781C111.309 147.424 110.253 142.886 110.253 138.809C110.253 136.038 112.339 133.83 113.683 132.691C113.453 132.774 113.229 132.857 113.043 132.953C110.483 134.08 108.122 135.769 108.122 138.861C108.122 141.952 108.262 144.211 108.262 144.211C108.262 144.211 107.136 144.352 107.277 146.457C107.418 148.563 109.664 149.414 109.664 149.414C109.664 149.414 112.058 151.808 113.606 153.632C115.155 155.456 116.806 156.025 119.514 155.744C121.434 155.545 122.464 155.193 123.117 153.824C121.673 154.408 120.1 154.596 118.56 154.368Z" fill="black"/>
</g>
<path d="M108.23 144.211C108.23 144.211 107.104 144.352 107.245 146.458C107.386 148.563 109.632 149.414 109.632 149.414C109.632 149.414 112.026 151.808 113.574 153.632C115.123 155.456 116.774 156.026 119.482 155.744C122.189 155.462 123.142 154.899 123.706 151.667C124.03 150.141 124.172 148.581 124.128 147.021C124.128 147.021 125.107 147.162 124.966 144.634C124.826 142.106 123.846 141.958 123.846 141.958C123.846 141.958 124.122 138.874 121.446 135.36C118.771 131.846 115.546 131.827 113.011 132.954C110.477 134.08 108.09 135.77 108.09 138.861C108.09 141.952 108.23 144.211 108.23 144.211Z" stroke="#263238" stroke-linecap="round" stroke-linejoin="round"/>
<path d="M115.386 141.696C115.539 142.336 115.386 142.976 115.046 143.034C114.707 143.091 114.298 142.65 114.138 141.997C113.978 141.344 114.138 140.717 114.477 140.659C114.816 140.602 115.2 141.043 115.386 141.696Z" fill="#263238"/>
<path d="M120.505 142.062C120.849 141.98 121 141.381 120.842 140.724C120.684 140.068 120.278 139.603 119.934 139.685C119.591 139.768 119.44 140.367 119.597 141.023C119.755 141.68 120.161 142.145 120.505 142.062Z" fill="#263238"/>
<path d="M118.125 140.531L119.008 144.922L116.371 145.504" stroke="#263238" stroke-linecap="round" stroke-linejoin="round"/>
<path d="M112.762 139.654C113.282 139.204 113.932 138.93 114.618 138.874" stroke="#263238" stroke-linecap="round" stroke-linejoin="round"/>
<path d="M118.4 138.093C118.4 138.093 119.866 137.504 120.646 138.189" stroke="#263238" stroke-linecap="round" stroke-linejoin="round"/>
<path d="M115.424 147.936C115.962 148.414 116.643 148.703 117.36 148.757C118.078 148.811 118.794 148.629 119.398 148.237" stroke="#263238" stroke-linecap="round" stroke-linejoin="round"/>
<mask id="mask6_932_744" style="mask-type:luminance" maskUnits="userSpaceOnUse" x="16" y="92" width="290" height="83">
<path d="M305.517 92.7808H16.5888V174.291H305.517V92.7808Z" fill="white"/>
</mask>
<g mask="url(#mask6_932_744)">
<path d="M313.139 94.3359H7.40482V97.9967H313.139V94.3359Z" fill="white" stroke="#263238" stroke-linecap="round" stroke-linejoin="round"/>
<path d="M313.139 167.494H7.40482V171.155H313.139V167.494Z" fill="white" stroke="#263238" stroke-linecap="round" stroke-linejoin="round"/>
<path d="M62.784 97.9902V167.315" stroke="#263238" stroke-width="0.5" stroke-linecap="round" stroke-linejoin="round"/>
<path d="M54.6112 97.9902V167.315" stroke="#263238" stroke-width="0.5" stroke-linecap="round" stroke-linejoin="round"/>
<path d="M46.432 97.9902V167.315" stroke="#263238" stroke-width="0.5" stroke-linecap="round" stroke-linejoin="round"/>
<path d="M38.2528 97.9902V167.315" stroke="#263238" stroke-width="0.5" stroke-linecap="round" stroke-linejoin="round"/>
<path d="M30.08 97.9902V167.315" stroke="#263238" stroke-width="0.5" stroke-linecap="round" stroke-linejoin="round"/>
<path d="M21.9008 149.869V167.315" stroke="#263238" stroke-width="0.5" stroke-linecap="round" stroke-linejoin="round"/>
<path d="M21.9008 116.313V141.971" stroke="#263238" stroke-width="0.5" stroke-linecap="round" stroke-linejoin="round"/>
<path d="M21.9008 97.9902V108.422" stroke="#263238" stroke-width="0.5" stroke-linecap="round" stroke-linejoin="round"/>
<path d="M70.592 97.9902V167.315" stroke="#263238" stroke-width="0.5" stroke-linecap="round" stroke-linejoin="round"/>
<path d="M78.4 97.9902V167.315" stroke="#263238" stroke-width="0.5" stroke-linecap="round" stroke-linejoin="round"/>
<path d="M86.208 97.9902V167.315" stroke="#263238" stroke-width="0.5" stroke-linecap="round" stroke-linejoin="round"/>
<path d="M94.016 97.9902V167.315" stroke="#263238" stroke-width="0.5" stroke-linecap="round" stroke-linejoin="round"/>
<path d="M101.824 97.9902V167.315" stroke="#263238" stroke-width="0.5" stroke-linecap="round" stroke-linejoin="round"/>
<path d="M109.632 97.9902V167.315" stroke="#263238" stroke-width="0.5" stroke-linecap="round" stroke-linejoin="round"/>
<path d="M117.44 97.9902V167.315" stroke="#263238" stroke-width="0.5" stroke-linecap="round" stroke-linejoin="round"/>
<path d="M125.248 97.9902V167.315" stroke="#263238" stroke-width="0.5" stroke-linecap="round" stroke-linejoin="round"/>
<path d="M133.056 97.9902V167.315" stroke="#263238" stroke-width="0.5" stroke-linecap="round" stroke-linejoin="round"/>
<path d="M140.864 97.9902V167.315" stroke="#263238" stroke-width="0.5" stroke-linecap="round" stroke-linejoin="round"/>
<path d="M148.678 97.9902V167.315" stroke="#263238" stroke-width="0.5" stroke-linecap="round" stroke-linejoin="round"/>
<path d="M156.486 97.9902V167.315" stroke="#263238" stroke-width="0.5" stroke-linecap="round" stroke-linejoin="round"/>
<path d="M164.294 97.9902V167.315" stroke="#263238" stroke-width="0.5" stroke-linecap="round" stroke-linejoin="round"/>
<path d="M172.102 97.9902V167.315" stroke="#263238" stroke-width="0.5" stroke-linecap="round" stroke-linejoin="round"/>
<path d="M179.91 97.9902V167.315" stroke="#263238" stroke-width="0.5" stroke-linecap="round" stroke-linejoin="round"/>
<path d="M187.718 97.9902V167.315" stroke="#263238" stroke-width="0.5" stroke-linecap="round" stroke-linejoin="round"/>
<path d="M195.526 97.9902V167.315" stroke="#263238" stroke-width="0.5" stroke-linecap="round" stroke-linejoin="round"/>
<path d="M203.334 97.9902V167.315" stroke="#263238" stroke-width="0.5" stroke-linecap="round" stroke-linejoin="round"/>
<path d="M211.142 97.9902V167.315" stroke="#263238" stroke-width="0.5" stroke-linecap="round" stroke-linejoin="round"/>
<path d="M218.95 97.9902V167.315" stroke="#263238" stroke-width="0.5" stroke-linecap="round" stroke-linejoin="round"/>
<path d="M226.758 97.9902V167.315" stroke="#263238" stroke-width="0.5" stroke-linecap="round" stroke-linejoin="round"/>
<path d="M234.566 97.9902V167.315" stroke="#263238" stroke-width="0.5" stroke-linecap="round" stroke-linejoin="round"/>
<path d="M242.374 97.9902V167.315" stroke="#263238" stroke-width="0.5" stroke-linecap="round" stroke-linejoin="round"/>
<path d="M250.182 97.9902V167.315" stroke="#263238" stroke-width="0.5" stroke-linecap="round" stroke-linejoin="round"/>
<path d="M257.99 97.9902V167.315" stroke="#263238" stroke-width="0.5" stroke-linecap="round" stroke-linejoin="round"/>
<path d="M265.318 97.9902V167.315" stroke="#263238" stroke-width="0.5" stroke-linecap="round" stroke-linejoin="round"/>
<path d="M272.653 97.9902V167.315" stroke="#263238" stroke-width="0.5" stroke-linecap="round" stroke-linejoin="round"/>
<path d="M279.981 97.9902V167.315" stroke="#263238" stroke-width="0.5" stroke-linecap="round" stroke-linejoin="round"/>
<path d="M287.315 97.9902V167.315" stroke="#263238" stroke-width="0.5" stroke-linecap="round" stroke-linejoin="round"/>
<path d="M294.643 97.9902V167.315" stroke="#263238" stroke-width="0.5" stroke-linecap="round" stroke-linejoin="round"/>
<path d="M301.978 156.634V167.315" stroke="#263238" stroke-width="0.5" stroke-linecap="round" stroke-linejoin="round"/>
<path d="M301.978 116.032V150.713" stroke="#263238" stroke-width="0.5" stroke-linecap="round" stroke-linejoin="round"/>
<path d="M301.978 97.9902V108.141" stroke="#263238" stroke-width="0.5" stroke-linecap="round" stroke-linejoin="round"/>
<path d="M19.8848 104.045H298.746" stroke="#263238" stroke-width="0.5" stroke-linecap="round" stroke-linejoin="round"/>
<path d="M25.2416 111.219H307.206" stroke="#263238" stroke-width="0.5" stroke-linecap="round" stroke-linejoin="round"/>
<path d="M23.552 118.394H299.309" stroke="#263238" stroke-width="0.5" stroke-linecap="round" stroke-linejoin="round"/>
<path d="M21.856 125.568H303.539" stroke="#263238" stroke-width="0.5" stroke-linecap="round" stroke-linejoin="round"/>
<path d="M23.8336 132.742H302.976" stroke="#263238" stroke-width="0.5" stroke-linecap="round" stroke-linejoin="round"/>
<path d="M19.04 139.917H302.131" stroke="#263238" stroke-width="0.5" stroke-linecap="round" stroke-linejoin="round"/>
<path d="M23.552 147.091H305.229" stroke="#263238" stroke-width="0.5" stroke-linecap="round" stroke-linejoin="round"/>
<path d="M33.4208 154.266H306.074" stroke="#263238" stroke-width="0.5" stroke-linecap="round" stroke-linejoin="round"/>
<path d="M21.0112 161.44H309.178" stroke="#263238" stroke-width="0.5" stroke-linecap="round" stroke-linejoin="round"/>
</g>
<path d="M182.4 196.48C182.4 196.48 183.104 210.829 185.638 222.65C188.173 234.47 185.357 234.464 187.328 243.328C189.299 252.192 192.39 261.478 192.39 267.245C192.39 273.011 192.531 272.595 190.419 276.39C188.907 279.051 187.064 281.509 184.934 283.706C183.808 284.986 185.498 284.986 188.032 284.691C190.566 284.397 193.939 284.269 195.91 281.875C197.882 279.482 198.157 279.488 199.987 277.094C201.818 274.701 198.579 271.891 198.016 270.202C197.453 268.512 198.298 264.154 199.296 259.085C200.294 254.016 200.845 246.426 200 240.8C199.155 235.174 197.325 232.218 197.325 228.557C197.325 224.896 201.267 207.878 201.408 200.986C201.549 194.093 201.549 192.666 201.549 192.666C201.549 192.666 192.64 197.459 182.4 196.48Z" fill="white"/>
<mask id="mask7_932_744" style="mask-type:luminance" maskUnits="userSpaceOnUse" x="182" y="192" width="20" height="93">
<path d="M182.4 196.48C182.4 196.48 183.104 210.829 185.638 222.65C188.173 234.47 185.357 234.464 187.328 243.328C189.299 252.192 192.39 261.478 192.39 267.245C192.39 273.011 192.531 272.595 190.419 276.39C188.907 279.051 187.064 281.509 184.934 283.706C183.808 284.986 185.498 284.986 188.032 284.691C190.566 284.397 193.939 284.269 195.91 281.875C197.882 279.482 198.157 279.488 199.987 277.094C201.818 274.701 198.579 271.891 198.016 270.202C197.453 268.512 198.298 264.154 199.296 259.085C200.294 254.016 200.845 246.426 200 240.8C199.155 235.174 197.325 232.218 197.325 228.557C197.325 224.896 201.267 207.878 201.408 200.986C201.549 194.093 201.549 192.666 201.549 192.666C201.549 192.666 192.64 197.459 182.4 196.48Z" fill="white"/>
</mask>
<g mask="url(#mask7_932_744)">
<path opacity="0.3" d="M182.4 196.48C182.4 196.48 183.104 210.829 185.638 222.649C188.173 234.47 185.357 234.464 187.328 243.328C189.299 252.192 192.39 261.478 192.39 267.245C192.39 273.011 192.531 272.595 190.419 276.39C188.907 279.05 187.064 281.508 184.934 283.705C183.885 284.889 185.28 284.985 187.494 284.742C188.589 284.225 189.657 283.652 190.694 283.027C193.414 281.363 197.414 275.987 197.414 273.747C197.414 271.507 195.814 268.947 195.814 259.027C195.814 249.107 193.894 241.747 191.334 235.667C188.774 229.587 187.814 215.827 191.014 209.747C193.728 204.589 199.661 199.206 201.402 197.689C201.478 193.619 201.478 192.685 201.478 192.685C201.478 192.685 192.64 197.459 182.4 196.48Z" fill="black"/>
</g>
<path d="M182.4 196.48C182.4 196.48 183.104 210.829 185.638 222.65C188.173 234.47 185.357 234.464 187.328 243.328C189.299 252.192 192.39 261.478 192.39 267.245C192.39 273.011 192.531 272.595 190.419 276.39C188.907 279.051 187.064 281.509 184.934 283.706C183.808 284.986 185.498 284.986 188.032 284.691C190.566 284.397 193.939 284.269 195.91 281.875C197.882 279.482 198.157 279.488 199.987 277.094C201.818 274.701 198.579 271.891 198.016 270.202C197.453 268.512 198.298 264.154 199.296 259.085C200.294 254.016 200.845 246.426 200 240.8C199.155 235.174 197.325 232.218 197.325 228.557C197.325 224.896 201.267 207.878 201.408 200.986C201.549 194.093 201.549 192.666 201.549 192.666C201.549 192.666 192.64 197.459 182.4 196.48Z" stroke="#263238" stroke-linecap="round" stroke-linejoin="round"/>
<path d="M160.986 193.658C160.986 193.658 161.267 198.586 162.266 207.45C163.264 216.314 165.638 221.235 165.638 226.579C165.638 231.923 162.829 240.371 165.357 249.651C167.885 258.931 170.566 262.739 171.27 267.52C171.974 272.301 169.99 281.446 168.595 283.136C167.2 284.826 166.906 285.952 168.454 286.234C170.003 286.515 172.934 285.248 174.784 283.674C176.634 282.099 176.064 280.16 176.896 278.47C177.728 276.781 181.254 276.499 179.149 272.282C177.952 269.894 176.333 268.339 176.192 265.107C176.051 261.875 174.784 261.306 176.333 247.238C177.882 233.171 178.163 232.186 178.022 225.011C177.882 217.837 178.586 211.923 178.867 206.72C179.149 201.517 179.699 196.48 179.699 196.48C179.699 196.48 166.899 194.65 164.787 194.086C163.55 193.747 162.267 193.602 160.986 193.658Z" fill="white"/>
<mask id="mask8_932_744" style="mask-type:luminance" maskUnits="userSpaceOnUse" x="160" y="193" width="20" height="94">
<path d="M160.986 193.658C160.986 193.658 161.267 198.586 162.266 207.45C163.264 216.314 165.638 221.235 165.638 226.579C165.638 231.923 162.829 240.371 165.357 249.651C167.885 258.931 170.566 262.739 171.27 267.52C171.974 272.301 169.99 281.446 168.595 283.136C167.2 284.826 166.906 285.952 168.454 286.234C170.003 286.515 172.934 285.248 174.784 283.674C176.634 282.099 176.064 280.16 176.896 278.47C177.728 276.781 181.254 276.499 179.149 272.282C177.952 269.894 176.333 268.339 176.192 265.107C176.051 261.875 174.784 261.306 176.333 247.238C177.882 233.171 178.163 232.186 178.022 225.011C177.882 217.837 178.586 211.923 178.867 206.72C179.149 201.517 179.699 196.48 179.699 196.48C179.699 196.48 166.899 194.65 164.787 194.086C163.55 193.747 162.267 193.602 160.986 193.658Z" fill="white"/>
</mask>
<g mask="url(#mask8_932_744)">
<path opacity="0.3" d="M177.389 196.141C173.6 195.584 166.33 194.496 164.787 194.08C163.55 193.742 162.267 193.6 160.986 193.657C160.986 193.657 161.267 198.586 162.266 207.45C163.264 216.314 165.638 221.235 165.638 226.579C165.638 231.923 162.829 240.371 165.357 249.651C167.885 258.931 170.566 262.739 171.27 267.52C171.974 272.301 169.99 281.446 168.595 283.136C167.2 284.825 166.906 285.952 168.454 286.233C169.001 286.299 169.555 286.258 170.086 286.112C170.864 284.876 171.779 283.732 172.813 282.701C175.373 280.461 176.333 276.941 177.613 273.741C178.893 270.541 173.453 266.381 171.853 260.621C170.253 254.861 170.893 246.861 170.893 237.901C170.893 228.941 169.613 227.981 170.253 222.541C170.797 217.933 177.293 204.851 179.277 200.941C179.334 200.301 179.386 199.725 179.437 199.193L177.389 196.141Z" fill="black"/>
</g>
<path d="M160.986 193.658C160.986 193.658 161.267 198.586 162.266 207.45C163.264 216.314 165.638 221.235 165.638 226.579C165.638 231.923 162.829 240.371 165.357 249.651C167.885 258.931 170.566 262.739 171.27 267.52C171.974 272.301 169.99 281.446 168.595 283.136C167.2 284.826 166.906 285.952 168.454 286.234C170.003 286.515 172.934 285.248 174.784 283.674C176.634 282.099 176.064 280.16 176.896 278.47C177.728 276.781 181.254 276.499 179.149 272.282C177.952 269.894 176.333 268.339 176.192 265.107C176.051 261.875 174.784 261.306 176.333 247.238C177.882 233.171 178.163 232.186 178.022 225.011C177.882 217.837 178.586 211.923 178.867 206.72C179.149 201.517 179.699 196.48 179.699 196.48C179.699 196.48 166.899 194.65 164.787 194.086C163.55 193.747 162.267 193.602 160.986 193.658Z" stroke="#263238" stroke-linecap="round" stroke-linejoin="round"/>
<path d="M171.827 70.0738C177.681 70.0738 182.426 65.3287 182.426 59.4754C182.426 53.622 177.681 48.877 171.827 48.877C165.974 48.877 161.229 53.622 161.229 59.4754C161.229 65.3287 165.974 70.0738 171.827 70.0738Z" fill="#0090EB"/>
<mask id="mask9_932_744" style="mask-type:luminance" maskUnits="userSpaceOnUse" x="161" y="48" width="22" height="23">
<path d="M171.827 70.0738C177.681 70.0738 182.426 65.3287 182.426 59.4754C182.426 53.622 177.681 48.877 171.827 48.877C165.974 48.877 161.229 53.622 161.229 59.4754C161.229 65.3287 165.974 70.0738 171.827 70.0738Z" fill="white"/>
</mask>
<g mask="url(#mask9_932_744)">
<path opacity="0.3" d="M177.517 65.6C171.443 65.6 166.522 60.8448 166.522 54.976C166.523 53.105 167.036 51.2701 168.006 49.6704C166.04 50.4475 164.35 51.7928 163.152 53.5346C161.954 55.2764 161.302 57.3357 161.28 59.4496C161.28 65.3184 166.202 70.0736 172.275 70.0736C174.186 70.0841 176.066 69.5997 177.734 68.6677C179.402 67.7357 180.8 66.3878 181.792 64.7552C180.435 65.3116 178.983 65.5986 177.517 65.6Z" fill="black"/>
</g>
<path d="M171.827 70.0738C177.681 70.0738 182.426 65.3287 182.426 59.4754C182.426 53.622 177.681 48.877 171.827 48.877C165.974 48.877 161.229 53.622 161.229 59.4754C161.229 65.3287 165.974 70.0738 171.827 70.0738Z" stroke="#263238" stroke-miterlimit="10"/>
<path d="M161.587 56.8833C161.587 56.8833 166.112 62.5601 174.445 60.3905C174.445 60.3905 175.187 54.2657 179.034 51.7505" stroke="#263238" stroke-miterlimit="10"/>
<path d="M174.445 60.3906C174.445 60.3906 178.419 64.3778 175.955 69.197" stroke="#263238" stroke-miterlimit="10"/>
<path d="M161.587 62.0161C161.587 62.0161 166.464 67.8145 176.672 65.2161" stroke="#263238" stroke-miterlimit="10"/>
<path d="M176.211 55.04C176.211 55.04 181.702 60.3776 180.371 65.8176" stroke="#263238" stroke-miterlimit="10"/>
<path d="M178.266 52.416C178.266 52.416 181.702 55.616 182.214 57.6" stroke="#263238" stroke-miterlimit="10"/>
<path d="M168.051 60.6274C168.051 60.6274 169.901 50.2082 176.518 50.0034" stroke="#263238" stroke-miterlimit="10"/>
<path d="M163.334 58.4707C163.334 58.4707 164.768 50.2595 171.078 48.9795" stroke="#263238" stroke-miterlimit="10"/>
<path d="M176.96 120.582C176.96 120.582 177.702 126.515 175.68 128.365C173.658 130.214 168.083 129.645 164.928 130.592C163.505 131.034 162.183 131.753 161.039 132.708C159.894 133.662 158.95 134.833 158.259 136.154C157.146 138.374 147.136 144.307 147.136 144.307L152.896 133.926C153.824 132.262 153.082 131.366 155.674 131.366C158.266 131.366 160.493 130.624 159.936 129.139L159.386 127.661C159.386 127.661 160.666 124.877 159.386 123.949C158.106 123.021 155.859 123.392 154.01 123.392C152.16 123.392 149.741 125.99 149.19 128.582C148.64 131.174 149.005 131.738 147.149 134.144C145.293 136.55 141.389 141.747 138.995 146.195C136.602 150.643 134.17 155.648 136.397 156.205C138.624 156.762 154.01 151.2 156.973 149.344C159.057 148.085 161.226 146.971 163.462 146.01L168.282 161.37C168.282 161.37 162.522 175.45 160.678 182.688C158.835 189.926 158.118 193.626 158.118 193.626C158.118 193.626 162.938 198.63 167.757 199.93C172.576 201.229 178.694 201.408 179.277 201.037C179.859 200.666 182.035 198.733 182.035 198.733C182.035 198.733 183.648 201.216 185.133 201.402C186.618 201.587 197.254 201.402 200.038 199.558C202.822 197.715 206.342 196.589 206.157 195.475C205.971 194.362 204.486 193.626 203.558 191.213C202.63 188.8 201.888 183.616 198.739 176.198C196.505 170.687 194.582 165.055 192.979 159.328C192.979 159.328 195.763 150.803 197.242 145.427C198.72 140.051 198.17 130.227 199.098 123.366C200.026 116.506 199.654 105.018 199.283 102.048C198.912 99.0784 190.387 85.5552 187.232 79.9936L184.083 74.432C184.083 74.432 186.771 70.2848 186.982 68.672C187.194 67.0592 187.405 63.9232 186.88 64.5568C186.355 65.1904 186.56 65.2928 186.349 66.0288C186.024 66.8672 185.637 67.6802 185.19 68.4608C185.19 68.4608 185.504 65.3952 185.613 64.0256C185.722 62.656 185.19 61.4656 184.768 61.6C184.346 61.7344 184.557 62.4448 184.557 63.392C184.363 64.9196 184.081 66.4346 183.712 67.9296C183.712 67.9296 183.072 63.6032 182.765 62.0224C182.458 60.4416 181.6 60.9664 181.485 61.4912C181.37 62.016 181.696 67.8272 181.696 67.8272L180.64 66.8736C180.64 66.8736 180.115 60.8576 179.584 60.6528C179.053 60.448 178.637 60.544 178.848 61.4912C179.096 63.4864 179.201 65.4969 179.162 67.5072C179.059 67.8272 178.317 71.9424 178.317 71.9424C178.317 71.9424 176.947 68.9856 176.211 67.5072C175.475 66.0288 174.931 68.4608 175.366 69.6192C175.948 71.0537 176.407 72.5353 176.736 74.048C176.947 75.424 180.006 76.7936 180.64 77.4272C181.274 78.0608 189.6 98.9504 190.029 100.64C190.27 101.627 190.624 102.582 191.085 103.488L189.44 120.506L187.52 127.546C187.52 127.546 186.88 128.39 186.464 128.288C186.048 128.186 186.573 121.427 186.573 121.427L176.96 120.582Z" fill="white"/>
<mask id="mask10_932_744" style="mask-type:luminance" maskUnits="userSpaceOnUse" x="135" y="60" width="72" height="142">
<path d="M176.96 120.582C176.96 120.582 177.702 126.515 175.68 128.365C173.658 130.214 168.083 129.645 164.928 130.592C163.505 131.034 162.183 131.753 161.039 132.708C159.894 133.662 158.95 134.833 158.259 136.154C157.146 138.374 147.136 144.307 147.136 144.307L152.896 133.926C153.824 132.262 153.082 131.366 155.674 131.366C158.266 131.366 160.493 130.624 159.936 129.139L159.386 127.661C159.386 127.661 160.666 124.877 159.386 123.949C158.106 123.021 155.859 123.392 154.01 123.392C152.16 123.392 149.741 125.99 149.19 128.582C148.64 131.174 149.005 131.738 147.149 134.144C145.293 136.55 141.389 141.747 138.995 146.195C136.602 150.643 134.17 155.648 136.397 156.205C138.624 156.762 154.01 151.2 156.973 149.344C159.057 148.085 161.226 146.971 163.462 146.01L168.282 161.37C168.282 161.37 162.522 175.45 160.678 182.688C158.835 189.926 158.118 193.626 158.118 193.626C158.118 193.626 162.938 198.63 167.757 199.93C172.576 201.229 178.694 201.408 179.277 201.037C179.859 200.666 182.035 198.733 182.035 198.733C182.035 198.733 183.648 201.216 185.133 201.402C186.618 201.587 197.254 201.402 200.038 199.558C202.822 197.715 206.342 196.589 206.157 195.475C205.971 194.362 204.486 193.626 203.558 191.213C202.63 188.8 201.888 183.616 198.739 176.198C196.505 170.687 194.582 165.055 192.979 159.328C192.979 159.328 195.763 150.803 197.242 145.427C198.72 140.051 198.17 130.227 199.098 123.366C200.026 116.506 199.654 105.018 199.283 102.048C198.912 99.0784 190.387 85.5552 187.232 79.9936L184.083 74.432C184.083 74.432 186.771 70.2848 186.982 68.672C187.194 67.0592 187.405 63.9232 186.88 64.5568C186.355 65.1904 186.56 65.2928 186.349 66.0288C186.024 66.8672 185.637 67.6802 185.19 68.4608C185.19 68.4608 185.504 65.3952 185.613 64.0256C185.722 62.656 185.19 61.4656 184.768 61.6C184.346 61.7344 184.557 62.4448 184.557 63.392C184.363 64.9196 184.081 66.4346 183.712 67.9296C183.712 67.9296 183.072 63.6032 182.765 62.0224C182.458 60.4416 181.6 60.9664 181.485 61.4912C181.37 62.016 181.696 67.8272 181.696 67.8272L180.64 66.8736C180.64 66.8736 180.115 60.8576 179.584 60.6528C179.053 60.448 178.637 60.544 178.848 61.4912C179.096 63.4864 179.201 65.4969 179.162 67.5072C179.059 67.8272 178.317 71.9424 178.317 71.9424C178.317 71.9424 176.947 68.9856 176.211 67.5072C175.475 66.0288 174.931 68.4608 175.366 69.6192C175.948 71.0537 176.407 72.5353 176.736 74.048C176.947 75.424 180.006 76.7936 180.64 77.4272C181.274 78.0608 189.6 98.9504 190.029 100.64C190.27 101.627 190.624 102.582 191.085 103.488L189.44 120.506L187.52 127.546C187.52 127.546 186.88 128.39 186.464 128.288C186.048 128.186 186.573 121.427 186.573 121.427L176.96 120.582Z" fill="white"/>
</mask>
<g mask="url(#mask10_932_744)">
<path opacity="0.3" d="M194.56 119.821C194.56 112.141 196.48 105.741 193.28 97.7407C190.08 89.7407 180.576 77.4399 180.576 77.4399C181.216 78.0799 189.536 98.9631 189.965 100.653C190.206 101.64 190.56 102.595 191.021 103.501L189.44 120.506L187.52 127.546C187.52 127.546 186.88 128.39 186.464 128.288C186.048 128.186 186.573 121.427 186.573 121.427L176.941 120.557C176.941 120.557 177.683 126.49 175.661 128.339C173.638 130.189 168.064 129.619 164.909 130.566C163.486 131.009 162.164 131.728 161.02 132.682C159.875 133.636 158.931 134.807 158.24 136.128C157.126 138.349 147.117 144.282 147.117 144.282L147.757 143.174C146.355 144.077 144.384 145.37 142.349 146.752L143.066 146.035L148.038 133.568C147.45 134.598 145.683 136.544 143.386 139.635C140.371 143.693 137.786 147.872 136.928 150.605L136.646 150.816C135.456 153.555 134.95 155.789 136.39 156.147C138.618 156.704 154.003 151.142 156.966 149.286C159.051 148.028 161.219 146.914 163.456 145.952L168.275 161.312C168.275 161.312 162.515 175.392 160.672 182.63C158.829 189.869 158.112 193.568 158.112 193.568C158.112 193.568 161.907 197.498 166.125 199.328C166.125 193.894 166.31 179.245 168.378 173.562C170.938 166.522 175.738 163.642 174.778 158.842C173.818 154.042 168.058 146.042 167.738 142.522C167.418 139.002 171.258 138.042 171.258 138.042C171.258 138.042 171.578 146.682 177.338 147.642C183.098 148.602 185.978 148.602 184.378 152.762C182.778 156.922 187.258 159.802 190.778 157.242C192.197 156.235 193.514 155.09 194.707 153.824C195.552 151.123 196.531 147.917 197.222 145.402C197.853 142.636 198.202 139.815 198.266 136.979C195.475 126.586 194.56 127.322 194.56 119.821Z" fill="black"/>
<path opacity="0.3" d="M151.245 124.672C151.245 124.672 151.616 123.923 154.042 124.301C156.467 124.678 158.522 124.858 157.766 126.534C157.28 127.725 156.966 128.98 156.832 130.259C156.832 130.259 154.97 130.822 154.042 131.008C153.114 131.194 149.562 132.288 148.819 132.288C148.077 132.288 148.262 128.371 149.005 126.694C149.213 126.217 149.52 125.79 149.907 125.442C150.293 125.093 150.749 124.83 151.245 124.672Z" fill="black"/>
<path opacity="0.3" d="M181.939 167.776C181.939 167.776 179.654 157.267 181.254 158.637C182.854 160.006 182.624 166.4 181.939 167.776Z" fill="black"/>
</g>
<path d="M176.96 120.582C176.96 120.582 177.702 126.515 175.68 128.365C173.658 130.214 168.083 129.645 164.928 130.592C163.505 131.034 162.183 131.753 161.039 132.708C159.894 133.662 158.95 134.833 158.259 136.154C157.146 138.374 147.136 144.307 147.136 144.307L152.896 133.926C153.824 132.262 153.082 131.366 155.674 131.366C158.266 131.366 160.493 130.624 159.936 129.139L159.386 127.661C159.386 127.661 160.666 124.877 159.386 123.949C158.106 123.021 155.859 123.392 154.01 123.392C152.16 123.392 149.741 125.99 149.19 128.582C148.64 131.174 149.005 131.738 147.149 134.144C145.293 136.55 141.389 141.747 138.995 146.195C136.602 150.643 134.17 155.648 136.397 156.205C138.624 156.762 154.01 151.2 156.973 149.344C159.057 148.085 161.226 146.971 163.462 146.01L168.282 161.37C168.282 161.37 162.522 175.45 160.678 182.688C158.835 189.926 158.118 193.626 158.118 193.626C158.118 193.626 162.938 198.63 167.757 199.93C172.576 201.229 178.694 201.408 179.277 201.037C179.859 200.666 182.035 198.733 182.035 198.733C182.035 198.733 183.648 201.216 185.133 201.402C186.618 201.587 197.254 201.402 200.038 199.558C202.822 197.715 206.342 196.589 206.157 195.475C205.971 194.362 204.486 193.626 203.558 191.213C202.63 188.8 201.888 183.616 198.739 176.198C196.505 170.687 194.582 165.055 192.979 159.328C192.979 159.328 195.763 150.803 197.242 145.427C198.72 140.051 198.17 130.227 199.098 123.366C200.026 116.506 199.654 105.018 199.283 102.048C198.912 99.0784 190.387 85.5552 187.232 79.9936L184.083 74.432C184.083 74.432 186.771 70.2848 186.982 68.672C187.194 67.0592 187.405 63.9232 186.88 64.5568C186.355 65.1904 186.56 65.2928 186.349 66.0288C186.024 66.8672 185.637 67.6802 185.19 68.4608C185.19 68.4608 185.504 65.3952 185.613 64.0256C185.722 62.656 185.19 61.4656 184.768 61.6C184.346 61.7344 184.557 62.4448 184.557 63.392C184.363 64.9196 184.081 66.4346 183.712 67.9296C183.712 67.9296 183.072 63.6032 182.765 62.0224C182.458 60.4416 181.6 60.9664 181.485 61.4912C181.37 62.016 181.696 67.8272 181.696 67.8272L180.64 66.8736C180.64 66.8736 180.115 60.8576 179.584 60.6528C179.053 60.448 178.637 60.544 178.848 61.4912C179.096 63.4864 179.201 65.4969 179.162 67.5072C179.059 67.8272 178.317 71.9424 178.317 71.9424C178.317 71.9424 176.947 68.9856 176.211 67.5072C175.475 66.0288 174.931 68.4608 175.366 69.6192C175.948 71.0537 176.407 72.5353 176.736 74.048C176.947 75.424 180.006 76.7936 180.64 77.4272C181.274 78.0608 189.6 98.9504 190.029 100.64C190.27 101.627 190.624 102.582 191.085 103.488L189.44 120.506L187.52 127.546C187.52 127.546 186.88 128.39 186.464 128.288C186.048 128.186 186.573 121.427 186.573 121.427L176.96 120.582Z" stroke="#263238" stroke-linecap="round" stroke-linejoin="round"/>
<path d="M195.2 152.045C195.578 150.829 195.962 149.568 196.32 148.358C185.725 149.968 174.963 150.149 164.32 148.896L164.96 151.021C174.534 153.402 188.877 152.576 195.2 152.045Z" fill="#0090EB"/>
<mask id="mask11_932_744" style="mask-type:luminance" maskUnits="userSpaceOnUse" x="164" y="148" width="33" height="5">
<path d="M195.2 152.045C195.578 150.829 195.962 149.568 196.32 148.358C185.725 149.968 174.963 150.149 164.32 148.896L164.96 151.021C174.534 153.402 188.877 152.576 195.2 152.045Z" fill="white"/>
</mask>
<g mask="url(#mask11_932_744)">
<g opacity="0.3">
<path d="M184.179 152.608C188.621 152.531 192.595 152.262 195.206 152.045C195.584 150.829 195.968 149.568 196.326 148.358C191.354 149.131 186.336 149.573 181.306 149.683C182.348 150.572 183.309 151.55 184.179 152.608Z" fill="black"/>
<path d="M170.912 149.491C167.802 149.306 165.504 149.05 164.346 148.896L164.986 151.021C167.264 151.568 169.578 151.953 171.91 152.173L170.912 149.491Z" fill="black"/>
</g>
</g>
<path d="M195.2 152.045C195.578 150.829 195.962 149.568 196.32 148.358C185.725 149.968 174.963 150.149 164.32 148.896L164.96 151.021C174.534 153.402 188.877 152.576 195.2 152.045Z" stroke="#263238" stroke-linecap="round" stroke-linejoin="round"/>
<path d="M181.594 95.744C181.594 95.744 177.517 95.9296 174.368 101.856C171.219 107.782 171.398 114.278 172.698 118.17C173.997 122.061 178.259 124.845 182.15 125.03C186.042 125.216 190.682 122.803 192.902 114.65C195.123 106.496 194.387 100.934 190.31 97.408C189.13 96.3931 187.703 95.7054 186.174 95.4134C184.644 95.1214 183.065 95.2354 181.594 95.744Z" fill="#263238" stroke="#263238" stroke-linecap="round" stroke-linejoin="round"/>
<path d="M188.48 104.352C188.283 104.822 188.059 105.279 187.808 105.722C185.286 110.202 183.731 110.771 183.731 110.771C183.731 110.771 189.754 111.162 192.083 108.442C194.413 105.722 193.446 103.194 193.446 103.194" stroke="#A6A6A6" stroke-linecap="round" stroke-linejoin="round"/>
<path d="M188.8 97.7539C189.083 98.4902 189.239 99.2693 189.261 100.058" stroke="#A6A6A6" stroke-linecap="round" stroke-linejoin="round"/>
<path d="M183.539 109.216C183.539 109.216 183.731 101.248 179.264 98.5283" stroke="#A6A6A6" stroke-linecap="round" stroke-linejoin="round"/>
<path d="M181.76 111.13C181.76 111.13 176.941 116.134 174.906 126.144C172.87 136.154 178.611 142.458 183.226 143.565C187.84 144.672 190.643 144.307 190.458 147.462C190.272 150.618 185.453 150.611 187.117 151.725C188.781 152.838 192.122 153.395 197.498 149.498C202.874 145.6 206.579 139.302 202.874 131.334C199.168 123.366 191.354 122.438 187.859 118.534C184.365 114.63 185.632 110.566 184.339 109.453C183.046 108.339 181.76 111.13 181.76 111.13Z" fill="#263238" stroke="#263238" stroke-linecap="round" stroke-linejoin="round"/>
<path d="M196.922 147.296C196.488 148.341 195.753 149.232 194.81 149.856" stroke="#A6A6A6" stroke-linecap="round" stroke-linejoin="round"/>
<path d="M182.566 111.36C182.566 111.36 176.736 122.24 179.846 129.044C182.957 135.847 188.589 135.847 194.029 138.004C196.589 139.015 197.664 141.306 197.702 143.636" stroke="#A6A6A6" stroke-linecap="round" stroke-linejoin="round"/>
<path d="M182.95 113.684C182.95 113.684 180.813 122.24 186.24 126.72C191.667 131.2 201.197 133.716 202.17 138.375C203.142 143.034 200.813 145.37 200.813 145.37" stroke="#A6A6A6" stroke-linecap="round" stroke-linejoin="round"/>
<path d="M185.005 141.684C185.805 141.837 186.618 141.946 187.424 142.055" stroke="#A6A6A6" stroke-linecap="round" stroke-linejoin="round"/>
<path d="M180.429 115.629C180.429 115.629 174.4 126.509 176.538 133.703C177.664 137.485 179.437 139.463 181.491 140.525" stroke="#A6A6A6" stroke-linecap="round" stroke-linejoin="round"/>
<path d="M206.08 195.469C205.894 194.362 204.41 193.619 203.482 191.206C202.554 188.794 201.811 183.61 198.662 176.192C198.15 174.989 197.658 173.734 197.184 172.48C183.104 168 169.779 170.56 164.128 172.077C162.765 175.814 161.402 179.795 160.659 182.682C158.81 189.914 158.099 193.619 158.099 193.619C158.099 193.619 162.918 198.624 167.738 199.923C172.557 201.222 178.675 201.402 179.258 201.03C179.84 200.659 182.016 198.726 182.016 198.726C182.016 198.726 183.629 201.21 185.114 201.395C186.598 201.581 197.235 201.395 200.019 199.552C202.803 197.709 206.253 196.582 206.08 195.469Z" fill="#0090EB"/>
<mask id="mask12_932_744" style="mask-type:luminance" maskUnits="userSpaceOnUse" x="158" y="169" width="49" height="33">
<path d="M206.08 195.469C205.894 194.362 204.41 193.619 203.482 191.206C202.554 188.794 201.811 183.61 198.662 176.192C198.15 174.989 197.658 173.734 197.184 172.48C183.104 168 169.779 170.56 164.128 172.077C162.765 175.814 161.402 179.795 160.659 182.682C158.81 189.914 158.099 193.619 158.099 193.619C158.099 193.619 162.918 198.624 167.738 199.923C172.557 201.222 178.675 201.402 179.258 201.03C179.84 200.659 182.016 198.726 182.016 198.726C182.016 198.726 183.629 201.21 185.114 201.395C186.598 201.581 197.235 201.395 200.019 199.552C202.803 197.709 206.253 196.582 206.08 195.469Z" fill="white"/>
</mask>
<g mask="url(#mask12_932_744)">
<path opacity="0.3" d="M185.28 199.501C187.2 197.581 192 195.661 193.92 193.741C195.84 191.821 194.56 191.501 189.76 193.101C184.96 194.701 183.04 195.021 177.92 193.101C172.8 191.181 169.6 191.181 166.72 184.461C164.346 178.919 167.629 172.941 168.851 171.021C166.931 171.373 165.35 171.751 164.115 172.083C162.752 175.821 161.389 179.802 160.646 182.688C158.797 189.92 158.086 193.626 158.086 193.626C158.086 193.626 162.906 198.631 167.725 199.93C172.544 201.229 178.662 201.408 179.245 201.037C179.827 200.666 182.003 198.733 182.003 198.733C182.003 198.733 183.616 201.216 185.101 201.402C185.739 201.455 186.38 201.474 187.021 201.459C185.504 200.89 184.563 200.218 185.28 199.501Z" fill="black"/>
</g>
<path d="M206.08 195.469C205.894 194.362 204.41 193.619 203.482 191.206C202.554 188.794 201.811 183.61 198.662 176.192C198.15 174.989 197.658 173.734 197.184 172.48C183.104 168 169.779 170.56 164.128 172.077C162.765 175.814 161.402 179.795 160.659 182.682C158.81 189.914 158.099 193.619 158.099 193.619C158.099 193.619 162.918 198.624 167.738 199.923C172.557 201.222 178.675 201.402 179.258 201.03C179.84 200.659 182.016 198.726 182.016 198.726C182.016 198.726 183.629 201.21 185.114 201.395C186.598 201.581 197.235 201.395 200.019 199.552C202.803 197.709 206.253 196.582 206.08 195.469Z" stroke="#263238" stroke-linecap="round" stroke-linejoin="round"/>
<path d="M147.117 144.307L141.85 147.654" stroke="#263238" stroke-linecap="round" stroke-linejoin="round"/>
</svg>
