<svg width="73" height="239" viewBox="0 0 73 239" fill="none" xmlns="http://www.w3.org/2000/svg">
<path d="M47.8813 148.603C47.8813 148.603 48.5853 162.952 51.1197 174.773C53.6541 186.593 50.8382 186.587 52.8094 195.451C54.7806 204.315 57.8717 213.601 57.8717 219.368C57.8717 225.134 58.0125 224.718 55.9005 228.513C54.3886 231.174 52.5456 233.632 50.4157 235.829C49.2893 237.109 50.9789 237.109 53.5133 236.814C56.0477 236.52 59.4205 236.392 61.3917 233.998C63.3629 231.605 63.6382 231.611 65.4686 229.217C67.299 226.824 64.0605 224.014 63.4973 222.325C62.9341 220.635 63.7789 216.277 64.7773 211.208C65.7757 206.139 66.3261 198.549 65.4813 192.923C64.6365 187.297 62.8062 184.341 62.8062 180.68C62.8062 177.019 66.7486 160.001 66.8894 153.109C67.0302 146.216 67.0302 144.789 67.0302 144.789C67.0302 144.789 58.1213 149.582 47.8813 148.603Z" fill="white"/>
<mask id="mask0_965_545" style="mask-type:luminance" maskUnits="userSpaceOnUse" x="47" y="144" width="21" height="93">
<path d="M47.8813 148.603C47.8813 148.603 48.5853 162.952 51.1197 174.773C53.6541 186.593 50.8382 186.587 52.8094 195.451C54.7806 204.315 57.8717 213.601 57.8717 219.368C57.8717 225.134 58.0125 224.718 55.9005 228.513C54.3886 231.174 52.5456 233.632 50.4157 235.829C49.2893 237.109 50.9789 237.109 53.5133 236.814C56.0477 236.52 59.4205 236.392 61.3917 233.998C63.3629 231.605 63.6382 231.611 65.4686 229.217C67.299 226.824 64.0605 224.014 63.4973 222.325C62.9341 220.635 63.7789 216.277 64.7773 211.208C65.7757 206.139 66.3261 198.549 65.4813 192.923C64.6365 187.297 62.8062 184.341 62.8062 180.68C62.8062 177.019 66.7486 160.001 66.8894 153.109C67.0302 146.216 67.0302 144.789 67.0302 144.789C67.0302 144.789 58.1213 149.582 47.8813 148.603Z" fill="white"/>
</mask>
<g mask="url(#mask0_965_545)">
<path opacity="0.3" d="M47.8813 148.603C47.8813 148.603 48.5853 162.952 51.1197 174.772C53.6541 186.593 50.8382 186.587 52.8094 195.451C54.7806 204.315 57.8717 213.601 57.8717 219.368C57.8717 225.134 58.0125 224.718 55.9005 228.513C54.3886 231.173 52.5456 233.631 50.4157 235.828C49.3661 237.012 50.7613 237.108 52.9757 236.865C54.0707 236.348 55.1387 235.775 56.1757 235.15C58.8957 233.486 62.8957 228.11 62.8957 225.87C62.8957 223.63 61.2957 221.07 61.2957 211.15C61.2957 201.23 59.3757 193.87 56.8157 187.79C54.2557 181.71 53.2957 167.95 56.4957 161.87C59.2093 156.712 65.1422 151.329 66.8829 149.812C66.9598 145.742 66.9597 144.808 66.9597 144.808C66.9597 144.808 58.1213 149.582 47.8813 148.603Z" fill="black"/>
</g>
<path d="M47.8813 148.603C47.8813 148.603 48.5853 162.952 51.1197 174.773C53.6541 186.593 50.8382 186.587 52.8094 195.451C54.7806 204.315 57.8717 213.601 57.8717 219.368C57.8717 225.134 58.0125 224.718 55.9005 228.513C54.3886 231.174 52.5456 233.632 50.4157 235.829C49.2893 237.109 50.9789 237.109 53.5133 236.814C56.0477 236.52 59.4205 236.392 61.3917 233.998C63.3629 231.605 63.6382 231.611 65.4686 229.217C67.299 226.824 64.0605 224.014 63.4973 222.325C62.9341 220.635 63.7789 216.277 64.7773 211.208C65.7757 206.139 66.3261 198.549 65.4813 192.923C64.6365 187.297 62.8062 184.341 62.8062 180.68C62.8062 177.019 66.7486 160.001 66.8894 153.109C67.0302 146.216 67.0302 144.789 67.0302 144.789C67.0302 144.789 58.1213 149.582 47.8813 148.603Z" stroke="#263238" stroke-linecap="round" stroke-linejoin="round"/>
<path d="M26.4669 145.781C26.4669 145.781 26.7485 150.709 27.7469 159.573C28.7453 168.437 31.1197 173.358 31.1197 178.702C31.1197 184.046 28.3101 192.494 30.8381 201.774C33.3661 211.054 36.0477 214.862 36.7517 219.643C37.4557 224.424 35.4717 233.569 34.0765 235.259C32.6813 236.949 32.3869 238.075 33.9357 238.357C35.4845 238.638 38.4157 237.371 40.2653 235.797C42.1149 234.222 41.5453 232.283 42.3773 230.593C43.2093 228.904 46.7357 228.622 44.6301 224.405C43.4333 222.017 41.8141 220.462 41.6733 217.23C41.5325 213.998 40.2653 213.429 41.8141 199.361C43.3629 185.294 43.6445 184.309 43.5037 177.134C43.3629 169.96 44.0669 164.046 44.3485 158.843C44.6301 153.64 45.1805 148.603 45.1805 148.603C45.1805 148.603 32.3805 146.773 30.2685 146.209C29.0313 145.87 27.7487 145.725 26.4669 145.781Z" fill="white"/>
<mask id="mask1_965_545" style="mask-type:luminance" maskUnits="userSpaceOnUse" x="26" y="145" width="20" height="94">
<path d="M26.4669 145.781C26.4669 145.781 26.7485 150.709 27.7469 159.573C28.7453 168.437 31.1197 173.358 31.1197 178.702C31.1197 184.046 28.3101 192.494 30.8381 201.774C33.3661 211.054 36.0477 214.862 36.7517 219.643C37.4557 224.424 35.4717 233.569 34.0765 235.259C32.6813 236.949 32.3869 238.075 33.9357 238.357C35.4845 238.638 38.4157 237.371 40.2653 235.797C42.1149 234.222 41.5453 232.283 42.3773 230.593C43.2093 228.904 46.7357 228.622 44.6301 224.405C43.4333 222.017 41.8141 220.462 41.6733 217.23C41.5325 213.998 40.2653 213.429 41.8141 199.361C43.3629 185.294 43.6445 184.309 43.5037 177.134C43.3629 169.96 44.0669 164.046 44.3485 158.843C44.6301 153.64 45.1805 148.603 45.1805 148.603C45.1805 148.603 32.3805 146.773 30.2685 146.209C29.0313 145.87 27.7487 145.725 26.4669 145.781Z" fill="white"/>
</mask>
<g mask="url(#mask1_965_545)">
<path opacity="0.3" d="M42.8701 148.264C39.0813 147.707 31.8109 146.619 30.2685 146.203C29.031 145.865 27.7484 145.723 26.4669 145.781C26.4669 145.781 26.7485 150.709 27.7469 159.573C28.7453 168.437 31.1197 173.358 31.1197 178.702C31.1197 184.046 28.3101 192.494 30.8381 201.774C33.3661 211.054 36.0477 214.862 36.7517 219.643C37.4557 224.424 35.4717 233.569 34.0765 235.259C32.6813 236.949 32.3869 238.075 33.9357 238.357C34.4825 238.422 35.0367 238.381 35.5677 238.235C36.3456 236.999 37.2602 235.855 38.2941 234.824C40.8541 232.584 41.8141 229.064 43.0941 225.864C44.3741 222.664 38.9341 218.504 37.3341 212.744C35.7341 206.984 36.3741 198.984 36.3741 190.024C36.3741 181.064 35.0941 180.104 35.7341 174.664C36.2781 170.056 42.7741 156.974 44.7581 153.064C44.8157 152.424 44.8669 151.848 44.9181 151.317L42.8701 148.264Z" fill="black"/>
</g>
<path d="M26.4669 145.781C26.4669 145.781 26.7485 150.709 27.7469 159.573C28.7453 168.437 31.1197 173.358 31.1197 178.702C31.1197 184.046 28.3101 192.494 30.8381 201.774C33.3661 211.054 36.0477 214.862 36.7517 219.643C37.4557 224.424 35.4717 233.569 34.0765 235.259C32.6813 236.949 32.3869 238.075 33.9357 238.357C35.4845 238.638 38.4157 237.371 40.2653 235.797C42.1149 234.222 41.5453 232.283 42.3773 230.593C43.2093 228.904 46.7357 228.622 44.6301 224.405C43.4333 222.017 41.8141 220.462 41.6733 217.23C41.5325 213.998 40.2653 213.429 41.8141 199.361C43.3629 185.294 43.6445 184.309 43.5037 177.134C43.3629 169.96 44.0669 164.046 44.3485 158.843C44.6301 153.64 45.1805 148.603 45.1805 148.603C45.1805 148.603 32.3805 146.773 30.2685 146.209C29.0313 145.87 27.7487 145.725 26.4669 145.781Z" stroke="#263238" stroke-linecap="round" stroke-linejoin="round"/>
<path d="M37.3086 22.1968C43.1619 22.1968 47.907 17.4517 47.907 11.5984C47.907 5.74506 43.1619 1 37.3086 1C31.4553 1 26.7102 5.74506 26.7102 11.5984C26.7102 17.4517 31.4553 22.1968 37.3086 22.1968Z" fill="#0090EB"/>
<mask id="mask2_965_545" style="mask-type:luminance" maskUnits="userSpaceOnUse" x="26" y="1" width="22" height="22">
<path d="M37.3086 22.1968C43.1619 22.1968 47.907 17.4517 47.907 11.5984C47.907 5.74506 43.1619 1 37.3086 1C31.4553 1 26.7102 5.74506 26.7102 11.5984C26.7102 17.4517 31.4553 22.1968 37.3086 22.1968Z" fill="white"/>
</mask>
<g mask="url(#mask2_965_545)">
<path opacity="0.3" d="M42.9981 17.7231C36.9246 17.7231 32.003 12.9679 32.003 7.09906C32.0039 5.22809 32.5174 3.39314 33.4878 1.79346C31.5217 2.57053 29.8318 3.91582 28.6337 5.65762C27.4357 7.39942 26.7838 9.45872 26.7614 11.5727C26.7614 17.4415 31.6829 22.1967 37.7565 22.1967C39.667 22.2071 41.5476 21.7228 43.2154 20.7908C44.8831 19.8588 46.2811 18.5109 47.2733 16.8783C45.9166 17.4347 44.4645 17.7216 42.9981 17.7231Z" fill="black"/>
</g>
<path d="M37.3086 22.1968C43.1619 22.1968 47.907 17.4517 47.907 11.5984C47.907 5.74506 43.1619 1 37.3086 1C31.4553 1 26.7102 5.74506 26.7102 11.5984C26.7102 17.4517 31.4553 22.1968 37.3086 22.1968Z" stroke="#263238" stroke-miterlimit="10"/>
<path d="M27.0686 9.00633C27.0686 9.00633 31.5934 14.6831 39.9262 12.5135C39.9262 12.5135 40.6686 6.38874 44.515 3.87354" stroke="#263238" stroke-miterlimit="10"/>
<path d="M39.9261 12.5137C39.9261 12.5137 43.9005 16.5009 41.4365 21.3201" stroke="#263238" stroke-miterlimit="10"/>
<path d="M27.0686 14.1392C27.0686 14.1392 31.9454 19.9376 42.1534 17.3392" stroke="#263238" stroke-miterlimit="10"/>
<path d="M41.6925 7.16309C41.6925 7.16309 47.1837 12.5007 45.8525 17.9407" stroke="#263238" stroke-miterlimit="10"/>
<path d="M43.7469 4.53906C43.7469 4.53906 47.1837 7.73906 47.6957 9.72306" stroke="#263238" stroke-miterlimit="10"/>
<path d="M33.5326 12.7505C33.5326 12.7505 35.3822 2.33126 41.9998 2.12646" stroke="#263238" stroke-miterlimit="10"/>
<path d="M28.8158 10.5937C28.8158 10.5937 30.2494 2.38254 36.5598 1.10254" stroke="#263238" stroke-miterlimit="10"/>
<path d="M42.4414 72.7054C42.4414 72.7054 43.1838 78.6382 41.1614 80.4878C39.139 82.3374 33.5646 81.7678 30.4094 82.715C28.9863 83.1572 27.6647 83.8762 26.5202 84.8306C25.3758 85.785 24.4312 86.9561 23.7406 88.2766C22.627 90.4974 12.6174 96.4302 12.6174 96.4302L18.3774 86.0494C19.3054 84.3854 18.563 83.4894 21.155 83.4894C23.747 83.4894 25.9742 82.747 25.4174 81.2622L24.867 79.7838C24.867 79.7838 26.147 76.9998 24.867 76.0718C23.587 75.1438 21.3406 75.515 19.491 75.515C17.6414 75.515 15.2222 78.1134 14.6718 80.7054C14.1214 83.2974 14.4862 83.8606 12.6302 86.267C10.7742 88.6734 6.87017 93.8702 4.47657 98.3182C2.08297 102.766 -0.349032 107.771 1.87817 108.328C4.10537 108.885 19.491 103.323 22.4542 101.467C24.5386 100.208 26.7069 99.0944 28.9438 98.1326L33.763 113.493C33.763 113.493 28.003 127.573 26.1598 134.811C24.3166 142.049 23.5998 145.749 23.5998 145.749C23.5998 145.749 28.419 150.753 33.2382 152.053C38.0574 153.352 44.1758 153.531 44.7582 153.16C45.3406 152.789 47.5166 150.856 47.5166 150.856C47.5166 150.856 49.1294 153.339 50.6142 153.525C52.099 153.71 62.7358 153.525 65.5198 151.681C68.3038 149.838 71.8238 148.712 71.6382 147.598C71.4526 146.485 69.9678 145.749 69.0398 143.336C68.1118 140.923 67.3694 135.739 64.2206 128.321C61.9864 122.81 60.0634 117.178 58.4606 111.451C58.4606 111.451 61.2446 102.926 62.723 97.5502C64.2014 92.1742 63.651 82.3502 64.579 75.4894C65.507 68.6286 65.1358 57.1406 64.7646 54.171C64.3934 51.2014 55.8686 37.6782 52.7134 32.1166L49.5646 26.555C49.5646 26.555 52.2526 22.4078 52.4638 20.795C52.675 19.1822 52.8862 16.0462 52.3614 16.6798C51.8366 17.3134 52.0414 17.4158 51.8302 18.1518C51.5053 18.9903 51.1181 19.8032 50.6718 20.5838C50.6718 20.5838 50.9854 17.5182 51.0942 16.1486C51.203 14.779 50.6718 13.5886 50.2494 13.723C49.827 13.8574 50.0382 14.5678 50.0382 15.515C49.8446 17.0426 49.5626 18.5577 49.1934 20.0526C49.1934 20.0526 48.5534 15.7262 48.2462 14.1454C47.939 12.5646 47.0814 13.0894 46.9662 13.6142C46.851 14.139 47.1774 19.9502 47.1774 19.9502L46.1214 18.9966C46.1214 18.9966 45.5966 12.9806 45.0654 12.7758C44.5342 12.571 44.1182 12.667 44.3294 13.6142C44.5777 15.6095 44.6825 17.62 44.643 19.6302C44.5406 19.9502 43.7982 24.0654 43.7982 24.0654C43.7982 24.0654 42.4286 21.1086 41.6926 19.6302C40.9566 18.1518 40.4126 20.5838 40.8478 21.7422C41.4297 23.1767 41.8879 24.6584 42.2174 26.171C42.4286 27.547 45.4878 28.9166 46.1214 29.5502C46.755 30.1838 55.0814 51.0734 55.5102 52.763C55.7513 53.7498 56.1057 54.7055 56.5662 55.611L54.9214 72.6286L53.0014 79.6686C53.0014 79.6686 52.3614 80.5134 51.9454 80.411C51.5294 80.3086 52.0542 73.5502 52.0542 73.5502L42.4414 72.7054Z" fill="white"/>
<mask id="mask3_965_545" style="mask-type:luminance" maskUnits="userSpaceOnUse" x="1" y="12" width="71" height="142">
<path d="M42.4414 72.7054C42.4414 72.7054 43.1838 78.6382 41.1614 80.4878C39.139 82.3374 33.5646 81.7678 30.4094 82.715C28.9863 83.1572 27.6647 83.8762 26.5202 84.8306C25.3758 85.785 24.4312 86.9561 23.7406 88.2766C22.627 90.4974 12.6174 96.4302 12.6174 96.4302L18.3774 86.0494C19.3054 84.3854 18.563 83.4894 21.155 83.4894C23.747 83.4894 25.9742 82.747 25.4174 81.2622L24.867 79.7838C24.867 79.7838 26.147 76.9998 24.867 76.0718C23.587 75.1438 21.3406 75.515 19.491 75.515C17.6414 75.515 15.2222 78.1134 14.6718 80.7054C14.1214 83.2974 14.4862 83.8606 12.6302 86.267C10.7742 88.6734 6.87017 93.8702 4.47657 98.3182C2.08297 102.766 -0.349032 107.771 1.87817 108.328C4.10537 108.885 19.491 103.323 22.4542 101.467C24.5386 100.208 26.7069 99.0944 28.9438 98.1326L33.763 113.493C33.763 113.493 28.003 127.573 26.1598 134.811C24.3166 142.049 23.5998 145.749 23.5998 145.749C23.5998 145.749 28.419 150.753 33.2382 152.053C38.0574 153.352 44.1758 153.531 44.7582 153.16C45.3406 152.789 47.5166 150.856 47.5166 150.856C47.5166 150.856 49.1294 153.339 50.6142 153.525C52.099 153.71 62.7358 153.525 65.5198 151.681C68.3038 149.838 71.8238 148.712 71.6382 147.598C71.4526 146.485 69.9678 145.749 69.0398 143.336C68.1118 140.923 67.3694 135.739 64.2206 128.321C61.9864 122.81 60.0634 117.178 58.4606 111.451C58.4606 111.451 61.2446 102.926 62.723 97.5502C64.2014 92.1742 63.651 82.3502 64.579 75.4894C65.507 68.6286 65.1358 57.1406 64.7646 54.171C64.3934 51.2014 55.8686 37.6782 52.7134 32.1166L49.5646 26.555C49.5646 26.555 52.2526 22.4078 52.4638 20.795C52.675 19.1822 52.8862 16.0462 52.3614 16.6798C51.8366 17.3134 52.0414 17.4158 51.8302 18.1518C51.5053 18.9903 51.1181 19.8032 50.6718 20.5838C50.6718 20.5838 50.9854 17.5182 51.0942 16.1486C51.203 14.779 50.6718 13.5886 50.2494 13.723C49.827 13.8574 50.0382 14.5678 50.0382 15.515C49.8446 17.0426 49.5626 18.5577 49.1934 20.0526C49.1934 20.0526 48.5534 15.7262 48.2462 14.1454C47.939 12.5646 47.0814 13.0894 46.9662 13.6142C46.851 14.139 47.1774 19.9502 47.1774 19.9502L46.1214 18.9966C46.1214 18.9966 45.5966 12.9806 45.0654 12.7758C44.5342 12.571 44.1182 12.667 44.3294 13.6142C44.5777 15.6095 44.6825 17.62 44.643 19.6302C44.5406 19.9502 43.7982 24.0654 43.7982 24.0654C43.7982 24.0654 42.4286 21.1086 41.6926 19.6302C40.9566 18.1518 40.4126 20.5838 40.8478 21.7422C41.4297 23.1767 41.8879 24.6584 42.2174 26.171C42.4286 27.547 45.4878 28.9166 46.1214 29.5502C46.755 30.1838 55.0814 51.0734 55.5102 52.763C55.7513 53.7498 56.1057 54.7055 56.5662 55.611L54.9214 72.6286L53.0014 79.6686C53.0014 79.6686 52.3614 80.5134 51.9454 80.411C51.5294 80.3086 52.0542 73.5502 52.0542 73.5502L42.4414 72.7054Z" fill="white"/>
</mask>
<g mask="url(#mask3_965_545)">
<path opacity="0.3" d="M60.0414 71.9438C60.0414 64.2638 61.9614 57.8638 58.7614 49.8638C55.5614 41.8638 46.0574 29.563 46.0574 29.563C46.6974 30.203 55.0174 51.0862 55.4462 52.7758C55.6873 53.7626 56.0417 54.7183 56.5022 55.6238L54.9214 72.6286L53.0014 79.6686C53.0014 79.6686 52.3614 80.5134 51.9454 80.411C51.5294 80.3086 52.0542 73.5502 52.0542 73.5502L42.4222 72.6798C42.4222 72.6798 43.1646 78.6126 41.1422 80.4622C39.1198 82.3118 33.5454 81.7422 30.3902 82.6894C28.9671 83.1316 27.6455 83.8506 26.501 84.805C25.3566 85.7594 24.412 86.9305 23.7214 88.251C22.6078 90.4718 12.5982 96.4046 12.5982 96.4046L13.2382 95.2974C11.8366 96.1998 9.86538 97.4926 7.83018 98.875L8.54698 98.1582L13.5198 85.691C12.931 86.7214 11.1646 88.667 8.86698 91.7582C5.85258 95.8158 3.26698 99.995 2.40938 102.728L2.12778 102.939C0.93738 105.678 0.431784 107.912 1.87178 108.27C4.09898 108.827 19.4846 103.265 22.4478 101.409C24.5322 100.151 26.7005 99.0368 28.9374 98.075L33.7566 113.435C33.7566 113.435 27.9966 127.515 26.1534 134.753C24.3102 141.992 23.5934 145.691 23.5934 145.691C23.5934 145.691 27.3886 149.621 31.6062 151.451C31.6062 146.017 31.7918 131.368 33.859 125.685C36.419 118.645 41.219 115.765 40.259 110.965C39.299 106.165 33.539 98.1646 33.219 94.6446C32.899 91.1246 36.739 90.1646 36.739 90.1646C36.739 90.1646 37.059 98.8046 42.819 99.7646C48.579 100.725 51.459 100.725 49.859 104.885C48.259 109.045 52.739 111.925 56.259 109.365C57.6787 108.358 58.9951 107.213 60.1886 105.947C61.0334 103.246 62.0126 100.04 62.7038 97.5246C63.3341 94.7594 63.6836 91.9376 63.747 89.1022C60.9566 78.7086 60.0414 79.4446 60.0414 71.9438Z" fill="black"/>
<path opacity="0.3" d="M16.7262 76.795C16.7262 76.795 17.0974 76.0462 19.523 76.4238C21.9486 76.8014 24.003 76.9806 23.2478 78.6574C22.7617 79.8485 22.4471 81.1026 22.3134 82.3822C22.3134 82.3822 20.451 82.9454 19.523 83.131C18.595 83.3166 15.043 84.411 14.3006 84.411C13.5582 84.411 13.7438 80.4942 14.4862 78.8174C14.6944 78.3404 15.0019 77.9133 15.3881 77.5646C15.7744 77.2159 16.2306 76.9535 16.7262 76.795Z" fill="black"/>
<path opacity="0.3" d="M47.4206 119.899C47.4206 119.899 45.1358 109.39 46.7358 110.76C48.3358 112.129 48.1054 118.523 47.4206 119.899Z" fill="black"/>
</g>
<path d="M42.4414 72.7054C42.4414 72.7054 43.1838 78.6382 41.1614 80.4878C39.139 82.3374 33.5646 81.7678 30.4094 82.715C28.9863 83.1572 27.6647 83.8762 26.5202 84.8306C25.3758 85.785 24.4312 86.9561 23.7406 88.2766C22.627 90.4974 12.6174 96.4302 12.6174 96.4302L18.3774 86.0494C19.3054 84.3854 18.563 83.4894 21.155 83.4894C23.747 83.4894 25.9742 82.747 25.4174 81.2622L24.867 79.7838C24.867 79.7838 26.147 76.9998 24.867 76.0718C23.587 75.1438 21.3406 75.515 19.491 75.515C17.6414 75.515 15.2222 78.1134 14.6718 80.7054C14.1214 83.2974 14.4862 83.8606 12.6302 86.267C10.7742 88.6734 6.87017 93.8702 4.47657 98.3182C2.08297 102.766 -0.349032 107.771 1.87817 108.328C4.10537 108.885 19.491 103.323 22.4542 101.467C24.5386 100.208 26.7069 99.0944 28.9438 98.1326L33.763 113.493C33.763 113.493 28.003 127.573 26.1598 134.811C24.3166 142.049 23.5998 145.749 23.5998 145.749C23.5998 145.749 28.419 150.753 33.2382 152.053C38.0574 153.352 44.1758 153.531 44.7582 153.16C45.3406 152.789 47.5166 150.856 47.5166 150.856C47.5166 150.856 49.1294 153.339 50.6142 153.525C52.099 153.71 62.7358 153.525 65.5198 151.681C68.3038 149.838 71.8238 148.712 71.6382 147.598C71.4526 146.485 69.9678 145.749 69.0398 143.336C68.1118 140.923 67.3694 135.739 64.2206 128.321C61.9864 122.81 60.0634 117.178 58.4606 111.451C58.4606 111.451 61.2446 102.926 62.723 97.5502C64.2014 92.1742 63.651 82.3502 64.579 75.4894C65.507 68.6286 65.1358 57.1406 64.7646 54.171C64.3934 51.2014 55.8686 37.6782 52.7134 32.1166L49.5646 26.555C49.5646 26.555 52.2526 22.4078 52.4638 20.795C52.675 19.1822 52.8862 16.0462 52.3614 16.6798C51.8366 17.3134 52.0414 17.4158 51.8302 18.1518C51.5053 18.9903 51.1181 19.8032 50.6718 20.5838C50.6718 20.5838 50.9854 17.5182 51.0942 16.1486C51.203 14.779 50.6718 13.5886 50.2494 13.723C49.827 13.8574 50.0382 14.5678 50.0382 15.515C49.8446 17.0426 49.5626 18.5577 49.1934 20.0526C49.1934 20.0526 48.5534 15.7262 48.2462 14.1454C47.939 12.5646 47.0814 13.0894 46.9662 13.6142C46.851 14.139 47.1774 19.9502 47.1774 19.9502L46.1214 18.9966C46.1214 18.9966 45.5966 12.9806 45.0654 12.7758C44.5342 12.571 44.1182 12.667 44.3294 13.6142C44.5777 15.6095 44.6825 17.62 44.643 19.6302C44.5406 19.9502 43.7982 24.0654 43.7982 24.0654C43.7982 24.0654 42.4286 21.1086 41.6926 19.6302C40.9566 18.1518 40.4126 20.5838 40.8478 21.7422C41.4297 23.1767 41.8879 24.6584 42.2174 26.171C42.4286 27.547 45.4878 28.9166 46.1214 29.5502C46.755 30.1838 55.0814 51.0734 55.5102 52.763C55.7513 53.7498 56.1057 54.7055 56.5662 55.611L54.9214 72.6286L53.0014 79.6686C53.0014 79.6686 52.3614 80.5134 51.9454 80.411C51.5294 80.3086 52.0542 73.5502 52.0542 73.5502L42.4414 72.7054Z" stroke="#263238" stroke-linecap="round" stroke-linejoin="round"/>
<path d="M60.6814 104.168C61.059 102.952 61.443 101.691 61.8014 100.481C51.2068 102.091 40.4441 102.272 29.8014 101.019L30.4414 103.144C40.0158 105.525 54.3582 104.699 60.6814 104.168Z" fill="#0090EB"/>
<mask id="mask4_965_545" style="mask-type:luminance" maskUnits="userSpaceOnUse" x="29" y="100" width="33" height="5">
<path d="M60.6814 104.168C61.059 102.952 61.443 101.691 61.8014 100.481C51.2068 102.091 40.4441 102.272 29.8014 101.019L30.4414 103.144C40.0158 105.525 54.3582 104.699 60.6814 104.168Z" fill="white"/>
</mask>
<g mask="url(#mask4_965_545)">
<g opacity="0.3">
<path d="M49.6606 104.731C54.1022 104.654 58.0766 104.385 60.6878 104.168C61.0654 102.952 61.4494 101.691 61.8078 100.481C56.8355 101.254 51.8176 101.696 46.787 101.806C47.8291 102.695 48.7907 103.673 49.6606 104.731Z" fill="black"/>
<path d="M36.3934 101.614C33.283 101.429 30.9854 101.173 29.827 101.019L30.467 103.144C32.7451 103.691 35.0592 104.076 37.3918 104.296L36.3934 101.614Z" fill="black"/>
</g>
</g>
<path d="M60.6814 104.168C61.059 102.952 61.443 101.691 61.8014 100.481C51.2068 102.091 40.4441 102.272 29.8014 101.019L30.4414 103.144C40.0158 105.525 54.3582 104.699 60.6814 104.168Z" stroke="#263238" stroke-linecap="round" stroke-linejoin="round"/>
<path d="M47.0749 47.867C47.0749 47.867 42.9981 48.0526 39.8493 53.979C36.7005 59.9054 36.8797 66.4014 38.1789 70.2926C39.4781 74.1838 43.7405 76.9678 47.6317 77.1534C51.5229 77.339 56.1629 74.9262 58.3837 66.7726C60.6045 58.619 59.8685 53.0574 55.7917 49.531C54.6109 48.5161 53.1847 47.8284 51.6552 47.5364C50.1258 47.2445 48.5466 47.3585 47.0749 47.867Z" fill="#263238" stroke="#263238" stroke-linecap="round" stroke-linejoin="round"/>
<path d="M53.9613 56.4753C53.7648 56.9448 53.5404 57.4021 53.2893 57.8449C50.7677 62.3249 49.2125 62.8945 49.2125 62.8945C49.2125 62.8945 55.2349 63.2849 57.5645 60.5649C59.8941 57.8449 58.9277 55.3169 58.9277 55.3169" stroke="#A6A6A6" stroke-linecap="round" stroke-linejoin="round"/>
<path d="M54.2814 49.877C54.5645 50.6133 54.7203 51.3924 54.7422 52.1809" stroke="#A6A6A6" stroke-linecap="round" stroke-linejoin="round"/>
<path d="M49.0206 61.3394C49.0206 61.3394 49.2126 53.3714 44.7454 50.6514" stroke="#A6A6A6" stroke-linecap="round" stroke-linejoin="round"/>
<path d="M47.2413 63.2527C47.2413 63.2527 42.4221 68.2575 40.3869 78.2671C38.3517 88.2767 44.0925 94.5807 48.7069 95.6879C53.3213 96.7951 56.1245 96.4303 55.9389 99.5855C55.7533 102.741 50.9341 102.734 52.5981 103.848C54.2621 104.962 57.6029 105.518 62.9789 101.621C68.3549 97.7231 72.0605 91.4255 68.3549 83.4575C64.6493 75.4895 56.8349 74.5615 53.3405 70.6575C49.8461 66.7535 51.1133 62.6895 49.8205 61.5759C48.5277 60.4623 47.2413 63.2527 47.2413 63.2527Z" fill="#263238" stroke="#263238" stroke-linecap="round" stroke-linejoin="round"/>
<path d="M62.403 99.4189C61.9697 100.464 61.2343 101.355 60.291 101.979" stroke="#A6A6A6" stroke-linecap="round" stroke-linejoin="round"/>
<path d="M48.0478 63.4834C48.0478 63.4834 42.2174 74.3634 45.3278 81.1666C48.4382 87.9698 54.0702 87.9698 59.5102 90.1266C62.0702 91.1378 63.1454 93.429 63.1838 95.7586" stroke="#A6A6A6" stroke-linecap="round" stroke-linejoin="round"/>
<path d="M48.4318 65.8066C48.4318 65.8066 46.2942 74.3634 51.7214 78.8434C57.1486 83.3234 66.6782 85.8386 67.651 90.4978C68.6238 95.157 66.2942 97.493 66.2942 97.493" stroke="#A6A6A6" stroke-linecap="round" stroke-linejoin="round"/>
<path d="M50.4862 93.8066C51.2862 93.9602 52.099 94.069 52.9054 94.1778" stroke="#A6A6A6" stroke-linecap="round" stroke-linejoin="round"/>
<path d="M45.9102 67.752C45.9102 67.752 39.8814 78.632 42.019 85.8256C43.1454 89.608 44.9182 91.5856 46.9726 92.648" stroke="#A6A6A6" stroke-linecap="round" stroke-linejoin="round"/>
<path d="M71.5614 147.592C71.3758 146.485 69.891 145.742 68.963 143.329C68.035 140.917 67.2926 135.733 64.1438 128.315C63.6318 127.112 63.139 125.857 62.6654 124.603C48.5854 120.123 35.2606 122.683 29.6094 124.2C28.2462 127.937 26.883 131.918 26.1406 134.805C24.291 142.037 23.5806 145.742 23.5806 145.742C23.5806 145.742 28.3998 150.747 33.219 152.046C38.0382 153.345 44.1566 153.525 44.739 153.153C45.3214 152.782 47.4974 150.849 47.4974 150.849C47.4974 150.849 49.1102 153.333 50.595 153.518C52.0798 153.704 62.7166 153.518 65.5006 151.675C68.2846 149.832 71.7342 148.705 71.5614 147.592Z" fill="#0090EB"/>
<mask id="mask5_965_545" style="mask-type:luminance" maskUnits="userSpaceOnUse" x="23" y="122" width="49" height="32">
<path d="M71.5614 147.592C71.3758 146.485 69.891 145.742 68.963 143.329C68.035 140.917 67.2926 135.733 64.1438 128.315C63.6318 127.112 63.139 125.857 62.6654 124.603C48.5854 120.123 35.2606 122.683 29.6094 124.2C28.2462 127.937 26.883 131.918 26.1406 134.805C24.291 142.037 23.5806 145.742 23.5806 145.742C23.5806 145.742 28.3998 150.747 33.219 152.046C38.0382 153.345 44.1566 153.525 44.739 153.153C45.3214 152.782 47.4974 150.849 47.4974 150.849C47.4974 150.849 49.1102 153.333 50.595 153.518C52.0798 153.704 62.7166 153.518 65.5006 151.675C68.2846 149.832 71.7342 148.705 71.5614 147.592Z" fill="white"/>
</mask>
<g mask="url(#mask5_965_545)">
<path opacity="0.3" d="M50.7614 151.624C52.6814 149.704 57.4813 147.784 59.4014 145.864C61.3214 143.944 60.0414 143.624 55.2414 145.224C50.4414 146.824 48.5214 147.144 43.4014 145.224C38.2814 143.304 35.0814 143.304 32.2014 136.584C29.827 131.042 33.1101 125.064 34.3325 123.144C32.4125 123.496 30.8317 123.874 29.5965 124.206C28.2333 127.944 26.8701 131.925 26.1277 134.811C24.2781 142.043 23.5677 145.749 23.5677 145.749C23.5677 145.749 28.387 150.754 33.2062 152.053C38.0254 153.352 44.1438 153.531 44.7262 153.16C45.3086 152.789 47.4846 150.856 47.4846 150.856C47.4846 150.856 49.0974 153.339 50.5822 153.525C51.2207 153.578 51.8616 153.597 52.5022 153.582C50.9854 153.013 50.0446 152.341 50.7614 151.624Z" fill="black"/>
</g>
<path d="M71.5614 147.592C71.3758 146.485 69.891 145.742 68.963 143.329C68.035 140.917 67.2926 135.733 64.1438 128.315C63.6318 127.112 63.139 125.857 62.6654 124.603C48.5854 120.123 35.2606 122.683 29.6094 124.2C28.2462 127.937 26.883 131.918 26.1406 134.805C24.291 142.037 23.5806 145.742 23.5806 145.742C23.5806 145.742 28.3998 150.747 33.219 152.046C38.0382 153.345 44.1566 153.525 44.739 153.153C45.3214 152.782 47.4974 150.849 47.4974 150.849C47.4974 150.849 49.1102 153.333 50.595 153.518C52.0798 153.704 62.7166 153.518 65.5006 151.675C68.2846 149.832 71.7342 148.705 71.5614 147.592Z" stroke="#263238" stroke-linecap="round" stroke-linejoin="round"/>
<path d="M12.5982 96.4302L7.33099 99.7774" stroke="#263238" stroke-linecap="round" stroke-linejoin="round"/>
</svg>
