<svg width="320" height="320" viewBox="0 0 320 320" fill="none" xmlns="http://www.w3.org/2000/svg">
<path d="M160 273.639C228.533 273.639 284.09 270.395 284.09 266.394C284.09 262.393 228.533 259.149 160 259.149C91.4672 259.149 35.9104 262.393 35.9104 266.394C35.9104 270.395 91.4672 273.639 160 273.639Z" fill="#F5F5F5"/>
<path d="M257.222 199.942H241.862V199.302H257.222C259.029 199.265 260.793 198.75 262.337 197.811C263.88 196.871 265.147 195.539 266.01 193.952L266.573 194.259C265.655 195.948 264.306 197.363 262.664 198.361C261.022 199.36 259.144 199.905 257.222 199.942Z" fill="#75CBFF"/>
<path d="M238.822 199.302H232.531V199.942H238.822V199.302Z" fill="#75CBFF"/>
<path d="M257.222 197.702H77.5104C76.5251 197.721 75.547 197.531 74.6411 197.143C73.7352 196.755 72.9223 196.178 72.2564 195.452C71.5904 194.725 71.0868 193.865 70.7788 192.929C70.4709 191.993 70.3658 191.002 70.4704 190.022L80.1792 78.6621C80.3963 76.5897 81.3605 74.6673 82.8916 73.2539C84.4227 71.8405 86.4161 71.033 88.4992 70.9821H268.211C269.196 70.964 270.174 71.1554 271.079 71.5438C271.985 71.9322 272.797 72.5086 273.463 73.2348C274.129 73.961 274.632 74.8205 274.941 75.7562C275.249 76.6919 275.355 77.6824 275.251 78.6621L265.6 190.022C265.382 192.104 264.409 194.034 262.866 195.449C261.323 196.864 259.316 197.665 257.222 197.702Z" fill="#75CBFF"/>
<path d="M253.478 195.366H78.2464C77.4074 195.379 76.5754 195.212 75.8056 194.879C75.0358 194.545 74.3459 194.051 73.7817 193.43C73.2175 192.809 72.792 192.074 72.5333 191.276C72.2747 190.478 72.1889 189.634 72.2816 188.8L81.1264 87.3535C81.1793 86.8451 81.4158 86.3734 81.7917 86.027C82.1676 85.6806 82.657 85.4832 83.168 85.4719H267.725C267.966 85.4678 268.205 85.5149 268.426 85.6103C268.647 85.7057 268.845 85.8471 269.008 86.0251C269.17 86.2031 269.292 86.4137 269.367 86.6427C269.441 86.8718 269.466 87.1141 269.44 87.3535L260.589 188.8C260.41 190.574 259.587 192.221 258.278 193.43C256.968 194.64 255.261 195.328 253.478 195.366Z" fill="white"/>
<path d="M100.582 80.4223C99.3735 80.4429 98.1741 80.2061 97.0637 79.7277C95.9533 79.2493 94.9574 78.5401 94.1421 77.6473C93.3268 76.7545 92.7107 75.6985 92.3348 74.5494C91.9588 73.4003 91.8316 72.1843 91.9616 70.9823C92.2247 68.4311 93.4105 66.0639 95.2961 64.3255C97.1818 62.5871 99.6375 61.5974 102.202 61.5423C103.41 61.5215 104.609 61.7583 105.72 62.2368C106.83 62.7152 107.825 63.4245 108.64 64.3174C109.455 65.2104 110.07 66.2665 110.445 67.4156C110.821 68.5647 110.947 69.7806 110.816 70.9823H106.976C107.053 70.2686 106.978 69.5467 106.755 68.8645C106.531 68.1824 106.165 67.5555 105.681 67.0258C105.197 66.496 104.605 66.0755 103.945 65.7921C103.286 65.5087 102.574 65.369 101.856 65.3823C100.332 65.4102 98.8703 65.9953 97.7478 67.027C96.6253 68.0587 95.9193 69.4657 95.7632 70.9823C95.6859 71.6959 95.7613 72.4178 95.9846 73.1C96.2079 73.7822 96.5739 74.409 97.0583 74.9388C97.5426 75.4685 98.1342 75.8891 98.7937 76.1725C99.4532 76.4558 100.166 76.5955 100.883 76.5823L100.582 80.4223Z" fill="#263238"/>
<path d="M138.566 80.4223C137.355 80.4466 136.153 80.2125 135.04 79.7357C133.926 79.2589 132.927 78.5503 132.109 77.6571C131.291 76.7639 130.672 75.7066 130.295 74.5556C129.918 73.4047 129.79 72.1865 129.92 70.9823C130.183 68.4311 131.369 66.0639 133.255 64.3255C135.14 62.5871 137.596 61.5974 140.16 61.5423C141.369 61.5215 142.568 61.7583 143.678 62.2368C144.788 62.7152 145.784 63.4245 146.598 64.3174C147.413 65.2104 148.029 66.2665 148.404 67.4156C148.779 68.5647 148.905 69.7806 148.774 70.9823H144.934C145.012 70.2686 144.936 69.5467 144.713 68.8645C144.49 68.1824 144.124 67.5555 143.639 67.0258C143.155 66.496 142.563 66.0755 141.904 65.7921C141.244 65.5087 140.532 65.369 139.814 65.3823C138.29 65.4102 136.829 65.9953 135.706 67.027C134.584 68.0587 133.878 69.4657 133.722 70.9823C133.645 71.6957 133.722 72.4172 133.945 73.0989C134.169 73.7806 134.535 74.407 135.019 74.9366C135.503 75.4661 136.094 75.8867 136.753 76.1704C137.412 76.4541 138.124 76.5945 138.842 76.5823L138.566 80.4223Z" fill="#263238"/>
<path d="M176.55 80.4223C175.342 80.442 174.143 80.2045 173.034 79.7257C171.924 79.2469 170.929 78.5376 170.114 77.6449C169.3 76.7522 168.684 75.6965 168.309 74.5478C167.933 73.3992 167.806 72.1838 167.936 70.9823C168.196 68.43 169.381 66.0612 171.268 64.3223C173.154 62.5835 175.611 61.5946 178.176 61.5423C179.385 61.5215 180.584 61.7583 181.694 62.2368C182.804 62.7152 183.8 63.4245 184.614 64.3174C185.429 65.2104 186.045 66.2665 186.42 67.4156C186.795 68.5647 186.921 69.7806 186.79 70.9823H182.95C183.029 70.2684 182.954 69.5461 182.731 68.8634C182.508 68.1808 182.142 67.5535 181.658 67.0235C181.173 66.4936 180.581 66.073 179.921 65.79C179.261 65.507 178.548 65.368 177.83 65.3823C176.307 65.4104 174.846 65.9957 173.725 67.0275C172.603 68.0593 171.899 69.4662 171.744 70.9823C171.667 71.6959 171.742 72.4178 171.965 73.1C172.189 73.7822 172.555 74.409 173.039 74.9388C173.523 75.4685 174.115 75.8891 174.775 76.1725C175.434 76.4558 176.146 76.5955 176.864 76.5823L176.55 80.4223Z" fill="#263238"/>
<path d="M214.534 80.4223C213.326 80.442 212.127 80.2045 211.018 79.7257C209.908 79.2469 208.913 78.5376 208.098 77.6449C207.284 76.7522 206.668 75.6965 206.293 74.5478C205.917 73.3992 205.79 72.1838 205.92 70.9823C206.182 68.4306 207.367 66.0625 209.253 64.3239C211.139 62.5853 213.595 61.596 216.16 61.5423C217.369 61.5216 218.568 61.7584 219.679 62.2368C220.789 62.7153 221.785 63.4244 222.6 64.3172C223.416 65.21 224.032 66.266 224.408 67.4151C224.784 68.5643 224.911 69.7802 224.781 70.9823H220.941C221.018 70.2686 220.943 69.5467 220.719 68.8645C220.496 68.1823 220.13 67.5555 219.646 67.0258C219.161 66.496 218.57 66.0754 217.91 65.7921C217.251 65.5087 216.538 65.369 215.821 65.3823C214.297 65.4104 212.837 65.9957 211.715 67.0275C210.594 68.0593 209.889 69.4662 209.734 70.9823C209.657 71.6959 209.733 72.4178 209.956 73.1C210.179 73.7822 210.545 74.409 211.029 74.9388C211.514 75.4685 212.105 75.8891 212.765 76.1724C213.424 76.4558 214.137 76.5955 214.854 76.5823L214.534 80.4223Z" fill="#263238"/>
<path d="M252.518 80.4223C251.31 80.442 250.111 80.2045 249.002 79.7257C247.892 79.2469 246.897 78.5376 246.082 77.6449C245.268 76.7522 244.652 75.6965 244.277 74.5478C243.901 73.3992 243.774 72.1838 243.904 70.9823C244.166 68.4306 245.351 66.0625 247.237 64.3239C249.123 62.5853 251.579 61.596 254.144 61.5423C255.353 61.5216 256.552 61.7584 257.663 62.2368C258.773 62.7153 259.769 63.4244 260.584 64.3172C261.4 65.21 262.016 66.266 262.392 67.4151C262.768 68.5643 262.895 69.7802 262.765 70.9823H258.925C259.002 70.2686 258.927 69.5467 258.703 68.8645C258.48 68.1823 258.114 67.5555 257.63 67.0258C257.145 66.496 256.554 66.0754 255.894 65.7921C255.235 65.5087 254.522 65.369 253.805 65.3823C252.282 65.4118 250.822 65.9975 249.701 67.0291C248.579 68.0606 247.874 69.4667 247.718 70.9823C247.641 71.6959 247.717 72.4178 247.94 73.1C248.163 73.7822 248.529 74.409 249.013 74.9388C249.498 75.4685 250.089 75.8891 250.749 76.1724C251.408 76.4558 252.121 76.5955 252.838 76.5823L252.518 80.4223Z" fill="#263238"/>
<path d="M253.018 190.765H79.7888C79.7478 190.766 79.7071 190.758 79.6693 190.742C79.6316 190.726 79.5979 190.702 79.5705 190.672C79.543 190.641 79.5226 190.605 79.5106 190.566C79.4985 190.527 79.4952 190.485 79.5008 190.445L88.1344 91.4622C88.1423 91.3756 88.182 91.295 88.2458 91.2359C88.3096 91.1768 88.3931 91.1434 88.48 91.1422H261.702C261.744 91.141 261.785 91.1487 261.823 91.1647C261.861 91.1808 261.895 91.2048 261.923 91.2351C261.95 91.2654 261.972 91.3014 261.984 91.3406C261.997 91.3798 262.001 91.4212 261.997 91.4622L253.363 190.445C253.355 190.531 253.316 190.612 253.252 190.671C253.188 190.73 253.105 190.763 253.018 190.765ZM80.1664 190.125H252.749L261.331 91.7822H88.7488L80.1664 190.125Z" fill="#E0E0E0"/>
<path d="M254.72 170.97H81.5168C81.4761 170.97 81.4359 170.962 81.3987 170.945C81.3615 170.929 81.3282 170.905 81.301 170.874C81.2737 170.844 81.2532 170.808 81.2408 170.77C81.2284 170.731 81.2243 170.69 81.2288 170.65C81.2353 170.563 81.2745 170.481 81.3387 170.422C81.4028 170.362 81.487 170.329 81.5744 170.33H254.797C254.838 170.329 254.879 170.336 254.917 170.352C254.955 170.368 254.989 170.392 255.017 170.423C255.045 170.453 255.066 170.489 255.079 170.528C255.092 170.567 255.096 170.609 255.091 170.65C255.08 170.74 255.036 170.822 254.967 170.881C254.899 170.94 254.811 170.972 254.72 170.97Z" fill="#E0E0E0"/>
<path d="M256.467 151.174H83.2448C83.2039 151.174 83.1634 151.166 83.1259 151.15C83.0884 151.133 83.0548 151.109 83.0271 151.079C82.9994 151.049 82.9782 151.014 82.965 150.975C82.9518 150.936 82.9469 150.895 82.9504 150.854C82.9598 150.767 83.0008 150.686 83.0657 150.627C83.1305 150.569 83.2148 150.535 83.3024 150.534H256.525C256.566 150.533 256.607 150.541 256.645 150.557C256.683 150.573 256.717 150.597 256.745 150.627C256.773 150.658 256.794 150.693 256.807 150.733C256.82 150.772 256.824 150.813 256.819 150.854C256.809 150.941 256.767 151.021 256.703 151.08C256.638 151.138 256.554 151.172 256.467 151.174Z" fill="#E0E0E0"/>
<path d="M258.195 131.372H84.9728C84.9316 131.374 84.8906 131.366 84.8526 131.35C84.8147 131.334 84.7806 131.31 84.7527 131.28C84.7248 131.249 84.7037 131.213 84.6909 131.174C84.6781 131.135 84.6738 131.093 84.6784 131.052C84.6891 130.966 84.7305 130.886 84.7951 130.827C84.8597 130.768 84.9432 130.735 85.0304 130.732H258.253C258.293 130.732 258.334 130.741 258.371 130.757C258.408 130.773 258.441 130.798 258.469 130.828C258.496 130.858 258.516 130.894 258.529 130.932C258.541 130.971 258.545 131.012 258.541 131.052C258.534 131.14 258.495 131.221 258.431 131.28C258.367 131.34 258.283 131.373 258.195 131.372Z" fill="#E0E0E0"/>
<path d="M259.923 111.578H86.7008C86.6596 111.579 86.6186 111.571 86.5806 111.555C86.5427 111.539 86.5086 111.515 86.4807 111.485C86.4527 111.454 86.4317 111.418 86.4189 111.379C86.4061 111.34 86.4018 111.299 86.4064 111.258C86.4143 111.171 86.454 111.09 86.5178 111.031C86.5816 110.972 86.665 110.939 86.752 110.938H259.981C260.022 110.936 260.063 110.944 260.1 110.96C260.138 110.976 260.172 111 260.199 111.031C260.227 111.061 260.247 111.097 260.259 111.136C260.271 111.176 260.274 111.217 260.269 111.258C260.262 111.345 260.223 111.426 260.159 111.486C260.095 111.545 260.011 111.578 259.923 111.578Z" fill="#E0E0E0"/>
<path d="M231.36 190.765C231.319 190.766 231.278 190.758 231.241 190.742C231.203 190.726 231.169 190.702 231.142 190.672C231.114 190.641 231.094 190.605 231.082 190.566C231.07 190.527 231.066 190.485 231.072 190.445L239.706 91.4622C239.713 91.3756 239.753 91.295 239.817 91.2359C239.881 91.1768 239.964 91.1434 240.051 91.1422C240.092 91.141 240.133 91.1487 240.171 91.1647C240.209 91.1808 240.243 91.2048 240.271 91.2351C240.299 91.2654 240.32 91.3014 240.333 91.3406C240.346 91.3798 240.35 91.4212 240.346 91.4622L231.712 190.445C231.703 190.532 231.662 190.612 231.597 190.671C231.532 190.73 231.448 190.764 231.36 190.765Z" fill="#E0E0E0"/>
<path d="M209.709 190.765C209.668 190.766 209.627 190.758 209.589 190.742C209.551 190.726 209.517 190.702 209.489 190.672C209.461 190.641 209.44 190.605 209.427 190.566C209.414 190.527 209.41 190.486 209.414 190.445L218.048 91.4622C218.057 91.3751 218.098 91.2944 218.163 91.2354C218.228 91.1764 218.312 91.1433 218.4 91.1422C218.441 91.1409 218.482 91.1486 218.519 91.1646C218.557 91.1807 218.591 91.2048 218.618 91.2353C218.646 91.2658 218.666 91.3019 218.678 91.3411C218.69 91.3803 218.694 91.4216 218.688 91.4622L210.054 190.445C210.048 190.532 210.009 190.613 209.945 190.673C209.88 190.732 209.796 190.765 209.709 190.765Z" fill="#E0E0E0"/>
<path d="M188.058 190.765C188.016 190.766 187.975 190.758 187.937 190.742C187.899 190.726 187.865 190.702 187.837 190.672C187.81 190.641 187.788 190.605 187.776 190.566C187.763 190.527 187.759 190.486 187.763 190.445L196.397 91.4622C196.406 91.3751 196.447 91.2944 196.512 91.2354C196.577 91.1764 196.661 91.1433 196.749 91.1422C196.79 91.1409 196.831 91.1486 196.868 91.1646C196.906 91.1807 196.94 91.2048 196.967 91.2353C196.995 91.2658 197.015 91.3019 197.027 91.3411C197.039 91.3803 197.042 91.4216 197.037 91.4622L188.403 190.445C188.395 190.531 188.356 190.612 188.292 190.671C188.228 190.73 188.145 190.763 188.058 190.765Z" fill="#E0E0E0"/>
<path d="M166.4 190.765C166.359 190.766 166.318 190.758 166.28 190.742C166.242 190.726 166.208 190.702 166.18 190.672C166.152 190.641 166.131 190.605 166.118 190.566C166.105 190.527 166.101 190.486 166.106 190.445L174.72 91.4622C174.728 91.3756 174.768 91.295 174.831 91.2359C174.895 91.1768 174.979 91.1434 175.066 91.1422C175.107 91.141 175.148 91.1487 175.186 91.1647C175.224 91.1808 175.258 91.2048 175.286 91.2351C175.314 91.2654 175.335 91.3014 175.348 91.3406C175.36 91.3798 175.365 91.4212 175.36 91.4622L166.752 190.445C166.744 190.532 166.703 190.614 166.638 190.673C166.573 190.732 166.488 190.765 166.4 190.765Z" fill="#E0E0E0"/>
<path d="M144.749 190.765C144.708 190.766 144.667 190.758 144.629 190.742C144.592 190.726 144.558 190.702 144.53 190.672C144.503 190.641 144.483 190.605 144.471 190.566C144.458 190.527 144.455 190.485 144.461 190.445L153.094 91.4622C153.101 91.3751 153.14 91.2936 153.204 91.2342C153.268 91.1748 153.353 91.142 153.44 91.1422C153.481 91.141 153.522 91.1487 153.56 91.1647C153.598 91.1808 153.632 91.2048 153.66 91.2351C153.688 91.2654 153.709 91.3014 153.722 91.3406C153.735 91.3798 153.739 91.4212 153.734 91.4622L145.101 190.445C145.091 190.532 145.05 190.612 144.986 190.671C144.921 190.73 144.836 190.764 144.749 190.765Z" fill="#E0E0E0"/>
<path d="M123.098 190.765C123.056 190.766 123.015 190.758 122.977 190.742C122.939 190.726 122.905 190.702 122.877 190.672C122.85 190.641 122.828 190.605 122.816 190.566C122.803 190.527 122.799 190.486 122.803 190.445L131.437 91.4622C131.446 91.3751 131.487 91.2944 131.552 91.2354C131.617 91.1764 131.701 91.1433 131.789 91.1422C131.83 91.1409 131.871 91.1486 131.908 91.1646C131.946 91.1807 131.98 91.2048 132.007 91.2353C132.035 91.2658 132.055 91.3019 132.067 91.3411C132.079 91.3803 132.082 91.4216 132.077 91.4622L123.443 190.445C123.437 190.532 123.397 190.613 123.333 190.673C123.269 190.732 123.185 190.765 123.098 190.765Z" fill="#E0E0E0"/>
<path d="M101.446 190.765C101.405 190.766 101.364 190.758 101.326 190.742C101.288 190.726 101.254 190.702 101.226 190.672C101.198 190.641 101.177 190.605 101.164 190.566C101.152 190.527 101.147 190.486 101.152 190.445L109.786 91.4622C109.795 91.3751 109.836 91.2944 109.901 91.2354C109.966 91.1764 110.05 91.1433 110.138 91.1422C110.179 91.1409 110.219 91.1486 110.257 91.1646C110.295 91.1807 110.329 91.2048 110.356 91.2353C110.383 91.2658 110.404 91.3019 110.416 91.3411C110.428 91.3803 110.431 91.4216 110.426 91.4622L101.792 190.445C101.784 190.531 101.744 190.612 101.681 190.671C101.617 190.73 101.533 190.763 101.446 190.765Z" fill="#E0E0E0"/>
<path d="M189.229 129.075H176C175.738 129.08 175.478 129.028 175.238 128.924C174.997 128.82 174.782 128.666 174.606 128.472C174.429 128.279 174.297 128.049 174.216 127.8C174.135 127.551 174.108 127.288 174.138 127.027L175.162 115.283C175.216 114.729 175.473 114.214 175.882 113.837C176.292 113.459 176.826 113.245 177.382 113.235H190.611C190.874 113.23 191.134 113.281 191.375 113.384C191.617 113.488 191.833 113.642 192.01 113.836C192.187 114.03 192.32 114.259 192.401 114.509C192.482 114.758 192.509 115.022 192.48 115.283L191.456 127.027C191.401 127.583 191.144 128.098 190.733 128.476C190.322 128.854 189.787 129.067 189.229 129.075Z" fill="#75CBFF"/>
<path opacity="0.6" d="M189.229 129.075H176C175.738 129.08 175.478 129.028 175.238 128.924C174.997 128.82 174.782 128.666 174.606 128.472C174.429 128.279 174.297 128.049 174.216 127.8C174.135 127.551 174.108 127.288 174.138 127.027L175.162 115.283C175.216 114.729 175.473 114.214 175.882 113.837C176.292 113.459 176.826 113.245 177.382 113.235H190.611C190.874 113.23 191.134 113.281 191.375 113.384C191.617 113.488 191.833 113.642 192.01 113.836C192.187 114.03 192.32 114.259 192.401 114.509C192.482 114.758 192.509 115.022 192.48 115.283L191.456 127.027C191.401 127.583 191.144 128.098 190.733 128.476C190.322 128.854 189.787 129.067 189.229 129.075Z" fill="white"/>
<path d="M281.53 129.075H267.622L268.998 113.235H282.912L277.683 121.158L281.53 129.075Z" fill="white"/>
<path d="M282.048 129.395H267.27L268.71 112.915H283.52L278.086 121.158L282.048 129.395ZM267.968 128.755H281.005L277.312 121.158L282.33 113.555H269.293L267.968 128.755Z" fill="#75CBFF"/>
<path d="M230.682 148.87H217.453C217.191 148.876 216.931 148.825 216.69 148.722C216.45 148.619 216.234 148.465 216.057 148.272C215.88 148.079 215.746 147.85 215.665 147.601C215.583 147.353 215.556 147.089 215.584 146.829L216.608 135.078C216.666 134.525 216.924 134.012 217.335 133.635C217.745 133.259 218.279 133.046 218.835 133.037H232.064C232.326 133.033 232.585 133.084 232.825 133.188C233.065 133.291 233.281 133.444 233.458 133.637C233.634 133.83 233.768 134.059 233.85 134.307C233.932 134.555 233.96 134.818 233.933 135.078L232.909 146.829C232.851 147.382 232.593 147.896 232.182 148.272C231.772 148.648 231.238 148.861 230.682 148.87Z" fill="#75CBFF"/>
<path opacity="0.4" d="M230.682 148.87H217.453C217.191 148.876 216.931 148.825 216.69 148.722C216.45 148.619 216.234 148.465 216.057 148.272C215.88 148.079 215.746 147.85 215.665 147.601C215.583 147.353 215.556 147.089 215.584 146.829L216.608 135.078C216.666 134.525 216.924 134.012 217.335 133.635C217.745 133.259 218.279 133.046 218.835 133.037H232.064C232.326 133.033 232.585 133.084 232.825 133.188C233.065 133.291 233.281 133.444 233.458 133.637C233.634 133.83 233.768 134.059 233.85 134.307C233.932 134.555 233.96 134.818 233.933 135.078L232.909 146.829C232.851 147.382 232.593 147.896 232.182 148.272C231.772 148.648 231.238 148.861 230.682 148.87Z" fill="white"/>
<path d="M256.032 109.28H220.909C220.646 109.285 220.386 109.234 220.145 109.131C219.903 109.027 219.687 108.873 219.51 108.679C219.333 108.485 219.2 108.256 219.119 108.006C219.038 107.757 219.011 107.493 219.04 107.232L220.064 95.4877C220.119 94.9335 220.375 94.4187 220.785 94.0411C221.194 93.6636 221.728 93.4495 222.285 93.4397H257.414C257.677 93.4355 257.937 93.487 258.177 93.5909C258.418 93.6948 258.634 93.8487 258.811 94.0423C258.987 94.236 259.121 94.465 259.202 94.7142C259.284 94.9634 259.311 95.227 259.283 95.4877L258.259 107.232C258.204 107.787 257.947 108.303 257.536 108.68C257.125 109.058 256.59 109.271 256.032 109.28Z" fill="#75CBFF"/>
<path d="M115.917 126.4C110.579 126.4 106.131 124.512 102.976 120.896C98.9248 116.243 98.3168 110.47 101.382 105.824C105.933 98.9438 117.792 95.2766 125.594 96.2942C125.634 96.2994 125.674 96.3131 125.709 96.3344C125.744 96.3557 125.774 96.3842 125.798 96.418C125.822 96.4517 125.838 96.4901 125.845 96.5305C125.853 96.5709 125.853 96.6125 125.843 96.6526C125.823 96.7372 125.774 96.8118 125.703 96.8624C125.632 96.913 125.546 96.9363 125.459 96.9278C117.85 95.9358 106.317 99.4878 101.914 106.144C98.4448 111.392 100.448 116.973 103.482 120.454C107.712 125.305 113.478 125.99 117.562 125.702C125.363 125.158 133.907 120.697 138.829 114.605C140.205 112.902 142.317 109.632 141.024 106.925C139.104 102.873 132.704 103.155 127.366 103.846C127.326 103.852 127.285 103.849 127.246 103.837C127.207 103.826 127.171 103.807 127.14 103.781C127.109 103.755 127.083 103.723 127.065 103.687C127.047 103.651 127.036 103.611 127.034 103.571C127.031 103.484 127.061 103.399 127.118 103.333C127.175 103.266 127.254 103.224 127.341 103.213C130.912 102.745 139.27 101.664 141.606 106.617C143.053 109.664 140.787 113.184 139.315 115.014C134.278 121.248 125.53 125.817 117.555 126.368C117.005 126.381 116.48 126.4 115.917 126.4Z" fill="#75CBFF"/>
<path d="M222.72 145.344H222.669C222.569 145.337 222.472 145.304 222.389 145.248C222.306 145.191 222.239 145.114 222.195 145.024C221.536 143.515 220.63 142.126 219.514 140.915C219.388 140.79 219.317 140.621 219.317 140.444C219.316 140.267 219.386 140.097 219.51 139.971C219.635 139.845 219.805 139.775 219.982 139.774C220.159 139.773 220.329 139.843 220.454 139.968C221.481 141.041 222.33 142.27 222.97 143.609C225.169 141.351 227.551 139.279 230.093 137.414C230.225 137.312 230.392 137.265 230.559 137.284C230.725 137.303 230.877 137.387 230.982 137.517C231.031 137.587 231.066 137.667 231.083 137.751C231.1 137.835 231.101 137.922 231.084 138.006C231.067 138.09 231.034 138.17 230.986 138.241C230.937 138.312 230.875 138.373 230.803 138.419C228.077 140.412 225.542 142.656 223.232 145.12C223.167 145.19 223.088 145.247 222.999 145.285C222.911 145.324 222.816 145.344 222.72 145.344Z" fill="white"/>
<path d="M199.149 187.731C198.229 187.746 197.316 187.566 196.471 187.201C195.626 186.837 194.868 186.297 194.248 185.617C193.627 184.937 193.158 184.133 192.872 183.259C192.586 182.384 192.49 181.459 192.589 180.544C192.789 178.599 193.694 176.794 195.134 175.471C196.574 174.148 198.448 173.398 200.403 173.363C201.323 173.347 202.236 173.526 203.081 173.89C203.926 174.254 204.684 174.793 205.304 175.472C205.925 176.152 206.394 176.955 206.68 177.829C206.966 178.704 207.062 179.629 206.963 180.544C206.763 182.489 205.858 184.295 204.419 185.619C202.979 186.943 201.104 187.694 199.149 187.731ZM200.32 174.643C198.718 174.678 197.183 175.297 196.005 176.383C194.826 177.47 194.085 178.949 193.92 180.544C193.838 181.295 193.917 182.056 194.152 182.775C194.387 183.494 194.772 184.155 195.281 184.713C195.791 185.272 196.414 185.716 197.108 186.015C197.803 186.315 198.553 186.463 199.309 186.451C200.912 186.414 202.447 185.794 203.625 184.706C204.803 183.619 205.544 182.139 205.709 180.544C205.789 179.793 205.708 179.033 205.473 178.315C205.237 177.598 204.852 176.938 204.342 176.38C203.833 175.823 203.211 175.379 202.518 175.08C201.824 174.78 201.075 174.631 200.32 174.643Z" fill="#75CBFF"/>
<path d="M137.6 148.064C136.68 148.079 135.767 147.899 134.922 147.534C134.077 147.17 133.319 146.63 132.699 145.95C132.078 145.27 131.61 144.466 131.324 143.592C131.038 142.717 130.941 141.791 131.04 140.877C131.24 138.927 132.149 137.118 133.594 135.793C135.039 134.468 136.92 133.72 138.88 133.689C139.8 133.674 140.713 133.855 141.558 134.219C142.403 134.583 143.161 135.123 143.781 135.803C144.402 136.483 144.87 137.287 145.156 138.161C145.442 139.036 145.539 139.962 145.44 140.877C145.238 142.826 144.329 144.634 142.884 145.959C141.44 147.283 139.56 148.032 137.6 148.064ZM138.739 134.969C137.136 135.005 135.6 135.625 134.422 136.712C133.243 137.8 132.503 139.281 132.339 140.877C132.257 141.628 132.336 142.389 132.571 143.108C132.806 143.827 133.191 144.488 133.701 145.046C134.21 145.605 134.833 146.049 135.527 146.348C136.222 146.648 136.972 146.796 137.728 146.784C139.331 146.747 140.866 146.127 142.044 145.039C143.222 143.952 143.963 142.472 144.128 140.877C144.209 140.126 144.129 139.367 143.895 138.649C143.66 137.932 143.277 137.272 142.769 136.714C142.26 136.156 141.64 135.712 140.947 135.411C140.255 135.11 139.507 134.96 138.752 134.969H138.739Z" fill="#75CBFF"/>
<path opacity="0.1" d="M150.106 165.274H83.6096C82.9956 165.283 82.3867 165.161 81.8232 164.917C81.2597 164.673 80.7543 164.313 80.3405 163.859C79.9267 163.405 79.614 162.869 79.4229 162.285C79.2318 161.702 79.1667 161.084 79.232 160.474C79.3674 159.176 79.9721 157.972 80.9325 157.088C81.893 156.204 83.1431 155.701 84.448 155.674H150.944C151.558 155.665 152.167 155.786 152.73 156.03C153.294 156.274 153.799 156.635 154.213 157.089C154.627 157.542 154.94 158.079 155.131 158.662C155.322 159.246 155.387 159.863 155.322 160.474C155.186 161.772 154.582 162.976 153.621 163.86C152.661 164.744 151.411 165.247 150.106 165.274Z" fill="black"/>
<path d="M61.6896 150.022L64.1856 151.091L60.8384 155.194C60.2536 154.175 59.7978 153.087 59.4816 151.955C59.4345 151.79 59.4213 151.616 59.4428 151.445C59.4643 151.275 59.52 151.11 59.6067 150.961C59.6933 150.812 59.8091 150.683 59.947 150.58C60.085 150.477 60.2423 150.402 60.4096 150.362L61.6896 150.022Z" fill="#FF8B7B"/>
<path d="M65.3312 155.52L63.8336 157.184C63.7205 157.31 63.58 157.409 63.4229 157.473C63.2658 157.537 63.0962 157.564 62.9271 157.552C62.7579 157.54 62.5937 157.49 62.4469 157.405C62.3001 157.32 62.1746 157.203 62.08 157.062L60.8384 155.219L64.1856 151.117L65.536 154.317C65.6235 154.515 65.6508 154.735 65.6144 154.949C65.578 155.163 65.4795 155.361 65.3312 155.52Z" fill="#FF8B7B"/>
<path d="M153.37 163.661L66.8096 156.8C66.1981 156.76 65.6021 156.59 65.0607 156.303C64.5192 156.016 64.0447 155.618 63.6681 155.134C63.2916 154.651 63.0216 154.093 62.8758 153.498C62.7301 152.902 62.7119 152.283 62.8224 151.68C63.0603 150.397 63.7587 149.244 64.7863 148.439C65.814 147.635 67.1001 147.233 68.4032 147.309L154.963 154.163C155.575 154.203 156.172 154.372 156.714 154.658C157.256 154.945 157.731 155.344 158.107 155.828C158.484 156.311 158.754 156.869 158.899 157.465C159.045 158.061 159.062 158.68 158.95 159.283C158.713 160.567 158.014 161.721 156.987 162.526C155.96 163.332 154.673 163.736 153.37 163.661Z" fill="#75CBFF"/>
<path d="M92.2944 123.271C93.376 125.709 94.4832 128.211 95.6032 130.643C96.7232 133.075 97.8816 135.546 99.1232 137.683C99.3865 138.129 99.6794 138.557 100 138.963C100.384 139.418 100.813 139.885 101.248 140.365C102.138 141.319 103.091 142.285 104.045 143.232C105.965 145.152 107.885 147.072 109.805 149.075L107.885 151.578C105.459 150.18 103.109 148.654 100.845 147.008C99.7056 146.183 98.592 145.325 97.4784 144.391C96.9216 143.923 96.3712 143.424 95.808 142.88C95.2199 142.265 94.6827 141.604 94.2016 140.903C92.599 138.502 91.16 135.996 89.8944 133.402C88.6464 130.874 87.5008 128.359 86.432 125.722L92.2944 123.271Z" fill="#FF8B7B"/>
<path d="M71.1296 122.88C69.6768 125.255 68.1856 127.642 66.6944 130.003L62.2464 137.095L61.7024 137.978L61.6384 138.093V138.144V138.183C61.6064 138.231 61.5786 138.283 61.5552 138.336C61.4064 138.766 61.316 139.214 61.2864 139.667C61.2134 140.906 61.2498 142.148 61.3952 143.379C61.6704 145.991 62.1888 148.749 62.7392 151.418L59.7696 152.519C58.4142 149.892 57.3415 147.129 56.5696 144.275C56.1488 142.744 55.8977 141.171 55.8208 139.584C55.7761 138.625 55.8666 137.664 56.0896 136.73C56.1792 136.448 56.2496 136.192 56.3712 135.891L56.5696 135.456L56.6528 135.283L56.7104 135.168L57.2032 134.202C58.4832 131.642 59.8976 129.159 61.3248 126.701C62.752 124.243 64.2368 121.831 65.8048 119.437L71.1296 122.88Z" fill="#FF8B7B"/>
<path d="M88.064 105.158C87.9488 105.472 88.0192 105.798 88.224 105.888C88.4288 105.978 88.6912 105.786 88.8128 105.466C88.9344 105.146 88.8576 104.826 88.6528 104.736C88.448 104.646 88.1856 104.838 88.064 105.158Z" fill="#263238"/>
<path d="M87.9872 105.792C88.001 106.924 88.1646 108.05 88.4736 109.139C88.1974 109.205 87.9101 109.209 87.6323 109.15C87.3546 109.091 87.0932 108.972 86.8672 108.8L87.9872 105.792Z" fill="#FF5652"/>
<path d="M89.2352 103.29C89.1939 103.282 89.1559 103.262 89.1264 103.232C88.9345 103.075 88.7078 102.965 88.4652 102.913C88.2225 102.861 87.9709 102.867 87.7312 102.931C87.7056 102.938 87.6788 102.939 87.6526 102.935C87.6264 102.932 87.6012 102.923 87.5786 102.909C87.5559 102.895 87.5362 102.877 87.5206 102.856C87.5051 102.834 87.494 102.81 87.488 102.784C87.4765 102.733 87.4854 102.68 87.513 102.635C87.5405 102.591 87.5845 102.559 87.6352 102.547C87.9398 102.466 88.2596 102.459 88.5672 102.528C88.8748 102.598 89.1611 102.74 89.4016 102.944C89.4202 102.962 89.4349 102.984 89.445 103.009C89.455 103.033 89.4602 103.059 89.4602 103.085C89.4602 103.111 89.455 103.137 89.445 103.161C89.4349 103.185 89.4202 103.207 89.4016 103.226C89.3808 103.248 89.3549 103.266 89.326 103.277C89.2971 103.288 89.266 103.293 89.2352 103.29Z" fill="#263238"/>
<path d="M76.3968 105.786C75.9936 109.229 76.6528 113.568 74.2976 115.296C74.2976 115.296 74.7904 118.496 80.4544 119.373C86.6816 120.294 83.7696 116.704 83.7696 116.704C80.4608 115.379 80.8256 112.864 81.6768 110.566L76.3968 105.786Z" fill="#FF8B7B"/>
<path d="M72.32 117.459C72.2368 115.872 72.32 113.478 73.3056 113.133C74.3808 112.755 80.736 113.261 83.9232 116.147C83.1936 117.587 82.8205 119.18 82.8352 120.794L72.32 117.459Z" fill="#263238"/>
<path d="M52.8448 260.205C52.2686 260.157 51.7074 259.996 51.1936 259.731C51.1757 259.722 51.1607 259.709 51.1505 259.692C51.1403 259.675 51.1352 259.655 51.136 259.635C51.1374 259.617 51.1443 259.599 51.1556 259.584C51.167 259.569 51.1824 259.558 51.2 259.552C51.2576 259.552 52.5376 259.04 53.12 259.315C53.1827 259.345 53.2385 259.388 53.2837 259.441C53.3289 259.494 53.3625 259.556 53.3824 259.622C53.4182 259.7 53.4282 259.788 53.4109 259.872C53.3936 259.956 53.35 260.032 53.2864 260.09C53.1584 260.181 53.0012 260.222 52.8448 260.205ZM51.4944 259.654C52.0832 259.917 52.9216 260.122 53.1456 259.936C53.1456 259.936 53.2352 259.866 53.1456 259.68C53.1331 259.64 53.1124 259.602 53.0849 259.571C53.0574 259.539 53.0236 259.513 52.9856 259.494C52.4834 259.405 51.9663 259.461 51.4944 259.654Z" fill="#75CBFF"/>
<path d="M51.2384 259.744C51.2116 259.743 51.1864 259.731 51.168 259.712C51.1589 259.698 51.1541 259.681 51.1541 259.664C51.1541 259.647 51.1589 259.63 51.168 259.616C51.168 259.565 51.5264 258.4 52.0896 258.125C52.1589 258.093 52.2342 258.077 52.3104 258.077C52.3866 258.077 52.4619 258.093 52.5312 258.125C52.6062 258.143 52.6723 258.187 52.718 258.249C52.7637 258.311 52.7859 258.387 52.7808 258.464C52.7808 258.944 51.7504 259.635 51.2896 259.744H51.2384ZM52.3136 258.266C52.256 258.266 52.1992 258.279 52.1472 258.304C51.7834 258.611 51.5222 259.022 51.3984 259.482C51.8784 259.264 52.5376 258.72 52.5568 258.432C52.5568 258.432 52.5568 258.336 52.4352 258.291C52.3969 258.274 52.3555 258.265 52.3136 258.266Z" fill="#75CBFF"/>
<path d="M85.0176 262.067C84.5882 262.065 84.1597 262.025 83.7376 261.946C83.7195 261.939 83.7039 261.926 83.693 261.91C83.682 261.894 83.6761 261.875 83.6761 261.856C83.6761 261.837 83.682 261.818 83.693 261.802C83.7039 261.786 83.7195 261.773 83.7376 261.766C83.9488 261.638 85.8176 260.57 86.2656 261.312C86.3111 261.377 86.3355 261.454 86.3355 261.533C86.3355 261.612 86.3111 261.689 86.2656 261.754C86.0736 261.99 85.5552 262.067 85.0176 262.067ZM84.0384 261.798C84.832 261.914 85.9008 261.894 86.08 261.638C86.08 261.638 86.1376 261.555 86.08 261.414C85.7984 260.992 84.6592 261.472 84.0384 261.798Z" fill="#75CBFF"/>
<path d="M83.7376 261.952C83.7211 261.959 83.7029 261.959 83.6864 261.952C83.6714 261.943 83.6593 261.929 83.6514 261.914C83.6435 261.898 83.6401 261.88 83.6416 261.863C83.6582 261.271 83.8646 260.701 84.2304 260.237C84.3062 260.173 84.3938 260.125 84.4883 260.095C84.5828 260.066 84.6822 260.055 84.7808 260.064C85.0624 260.096 85.1456 260.237 85.1648 260.352C85.2416 260.839 84.288 261.728 83.7824 261.959L83.7376 261.952ZM84.704 260.243C84.5773 260.244 84.4549 260.289 84.3584 260.371C84.0632 260.736 83.8887 261.183 83.8592 261.651C84.3648 261.338 85.0176 260.634 84.9664 260.339C84.9664 260.339 84.9664 260.237 84.7616 260.218L84.704 260.243Z" fill="#75CBFF"/>
<path d="M79.1104 261.85H83.3216L83.3664 252.09H79.1488L79.1104 261.85Z" fill="#FF8B7B"/>
<path d="M46.4704 258.829L50.4192 259.744L53.7344 250.093L49.7856 249.178L46.4704 258.829Z" fill="#FF8B7B"/>
<path d="M51.0336 259.091L46.4448 257.92C46.3649 257.898 46.2795 257.905 46.2042 257.94C46.129 257.975 46.069 258.036 46.0352 258.112L44.4544 261.575C44.4161 261.661 44.3974 261.755 44.3996 261.849C44.4018 261.943 44.4248 262.036 44.467 262.12C44.5092 262.205 44.5696 262.279 44.6437 262.337C44.7179 262.395 44.804 262.437 44.896 262.458C46.5088 262.835 47.3088 262.938 49.3248 263.443C50.5664 263.757 53.1008 264.531 54.816 264.96C56.5312 265.389 57.1136 263.731 56.4416 263.405C53.44 261.914 52.4608 260.659 51.6416 259.488C51.4918 259.289 51.2766 259.148 51.0336 259.091Z" fill="#263238"/>
<path d="M83.2768 261.363H78.6752C78.5923 261.363 78.5119 261.392 78.4477 261.444C78.3835 261.497 78.3395 261.57 78.3232 261.651L77.6384 265.395C77.6224 265.488 77.627 265.583 77.652 265.674C77.6769 265.764 77.7215 265.848 77.7826 265.92C77.8437 265.991 77.9198 266.049 78.0055 266.087C78.0912 266.126 78.1844 266.145 78.2784 266.144C79.936 266.144 82.3296 266.022 84.416 266.022C86.8608 266.022 86.9056 266.15 89.7664 266.15C91.4944 266.15 91.9104 264.403 91.1808 264.23C87.8528 263.514 87.2256 263.437 84.3072 261.67C83.9983 261.476 83.6419 261.37 83.2768 261.363Z" fill="#263238"/>
<path d="M69.3632 115.008C65.3568 115.328 59.7056 125.376 59.7056 125.376L66.9632 131.949C69.2234 129.419 71.2799 126.714 73.1136 123.859C75.9616 119.296 73.4592 114.682 69.3632 115.008Z" fill="#75CBFF"/>
<path opacity="0.6" d="M69.3632 115.008C65.3568 115.328 59.7056 125.376 59.7056 125.376L66.9632 131.949C69.2234 129.419 71.2799 126.714 73.1136 123.859C75.9616 119.296 73.4592 114.682 69.3632 115.008Z" fill="white"/>
<path opacity="0.2" d="M71.4112 122.24L66.6176 131.623L66.9568 131.936C66.9568 131.936 68.8128 129.907 70.88 127.111L71.4112 122.24Z" fill="black"/>
<path d="M89.44 137.536C88.7168 142.183 87.5712 147.93 85.8112 155.008L63.52 151.68C63.7248 148.48 67.136 134.215 66.464 118.899C66.4402 118.389 66.5215 117.88 66.7029 117.403C66.8842 116.925 67.1618 116.49 67.5183 116.125C67.8748 115.759 68.3027 115.471 68.7753 115.278C69.2479 115.085 69.7552 114.991 70.2656 115.002C71.3664 115.002 72.576 115.085 73.7664 115.2C76.9499 115.49 80.1144 115.961 83.2448 116.608C85.3912 117.151 87.4924 117.86 89.5296 118.727C89.5296 118.727 91.1296 121.075 90.2656 130.848C90.0928 132.787 89.8304 134.995 89.44 137.536Z" fill="#75CBFF"/>
<path opacity="0.6" d="M89.44 137.536C88.7168 142.183 87.5712 147.93 85.8112 155.008L63.52 151.68C63.7248 148.48 67.136 134.215 66.464 118.899C66.4402 118.389 66.5215 117.88 66.7029 117.403C66.8842 116.925 67.1618 116.49 67.5183 116.125C67.8748 115.759 68.3027 115.471 68.7753 115.278C69.2479 115.085 69.7552 114.991 70.2656 115.002C71.3664 115.002 72.576 115.085 73.7664 115.2C76.9499 115.49 80.1144 115.961 83.2448 116.608C85.3912 117.151 87.4924 117.86 89.5296 118.727C89.5296 118.727 91.1296 121.075 90.2656 130.848C90.0928 132.787 89.8304 134.995 89.44 137.536Z" fill="white"/>
<path opacity="0.2" d="M89.44 137.536C87.6288 136.39 85.9328 131.136 86.6944 128.365L90.2656 130.861C90.0928 132.787 89.8304 134.995 89.44 137.536Z" fill="black"/>
<path d="M84.4288 121.6C83.2768 125.44 90.2528 136.749 90.2528 136.749L98.5728 132.397C97.349 128.853 95.7076 125.467 93.6832 122.311C90.3488 117.402 85.76 117.261 84.4288 121.6Z" fill="#75CBFF"/>
<path opacity="0.6" d="M84.4288 121.6C83.2768 125.44 90.2528 136.749 90.2528 136.749L98.5728 132.397C97.349 128.853 95.7076 125.467 93.6832 122.311C90.3488 117.402 85.76 117.261 84.4288 121.6Z" fill="white"/>
<path opacity="0.2" d="M83.36 252.096L83.3408 257.127H79.1296L79.1488 252.096H83.36Z" fill="black"/>
<path opacity="0.2" d="M49.7856 249.184L53.7344 250.093L52.0192 255.072L48.0768 254.157L49.7856 249.184Z" fill="black"/>
<path d="M77.856 100.122C76.6336 104.135 75.7184 106.413 76.9216 109.229C77.295 110.151 77.9144 110.953 78.7121 111.547C79.5099 112.141 80.4554 112.505 81.4456 112.598C82.4359 112.692 83.4329 112.512 84.3279 112.078C85.223 111.644 85.9818 110.973 86.5216 110.138C88.6592 106.938 90.2976 100.935 87.104 97.8049C86.4338 97.1067 85.5911 96.598 84.661 96.3304C83.731 96.0627 82.7467 96.0456 81.808 96.2808C80.8692 96.516 80.0093 96.9951 79.3153 97.6696C78.6213 98.3441 78.1178 99.19 77.856 100.122Z" fill="#FF8B7B"/>
<path d="M84.3008 104.531C83.8208 106.586 82.5728 110.291 79.5008 110.72C77.7856 110.957 74.9312 110.451 74.6688 109.069C74.4064 107.687 75.4688 107.872 75.2 106.739C74.9312 105.607 73.5296 101.619 75.1232 98.8289C72.9088 99.0145 74.4256 95.7313 78.4 94.9889C77.1712 94.5089 77.76 91.1489 83.8912 92.7489C86.7584 93.4849 88.8896 94.6113 89.1456 96.1537C91.7568 97.2545 92.448 100.026 90.8288 101.037C89.2096 102.048 86.8672 100.909 86.8672 100.909C86.8672 100.909 87.9744 106.771 84.3008 104.531Z" fill="#263238"/>
<path d="M82.6304 104.218C82.5742 105.139 82.8564 106.05 83.424 106.778C84.1856 107.751 84.4416 107.757 84.7552 106.676C85.0432 105.703 85.7408 103.527 84.7232 102.951C83.7056 102.375 82.72 103.098 82.6304 104.218Z" fill="#FF8B7B"/>
<path d="M77.9072 153.83C77.9072 153.83 74.4448 186.88 72.32 198.938C69.952 212.147 54.2208 254.618 54.2208 254.618L46.72 252.762C50.56 238.042 56.2496 210.63 59.712 200.134C62.3232 184.179 59.712 164.122 63.552 151.693L77.9072 153.83Z" fill="#263238"/>
<path d="M55.968 252.16L54.5856 254.867L46.1632 252.749L46.8608 250.189L55.968 252.16Z" fill="#75CBFF"/>
<path opacity="0.2" d="M75.7696 166.72C76.0083 166.673 76.2541 166.673 76.4928 166.72C75.3856 176.589 73.8112 189.76 72.5696 197.319C71.5328 186.336 70.5728 167.744 75.7696 166.72Z" fill="black"/>
<path d="M85.8112 155.008C85.8112 155.008 87.5584 190.323 87.8144 203.168C88.0768 216.531 84.8768 256.153 84.8768 256.153H77.7344C77.7344 256.153 75.04 219.411 76.4928 201.491C74.7712 187.84 71.1616 152.851 71.1616 152.851L85.8112 155.008Z" fill="#263238"/>
<path d="M111.584 148.672C110.423 148.576 109.255 148.742 108.166 149.159L107.648 150.016C107.547 150.186 107.486 150.376 107.469 150.573C107.452 150.77 107.479 150.968 107.55 151.152C107.62 151.337 107.731 151.503 107.874 151.639C108.017 151.775 108.189 151.876 108.378 151.936L110.88 152.736L112.102 153.107C112.36 153.187 112.635 153.183 112.89 153.097C113.146 153.011 113.367 152.847 113.523 152.627L114.048 151.898C114.236 151.64 114.322 151.321 114.288 151.004C114.253 150.687 114.102 150.394 113.862 150.183L112.736 149.165C112.415 148.881 112.011 148.708 111.584 148.672Z" fill="#FF8B7B"/>
<path d="M86.1376 253.306L85.8496 256.269H77.1648L76.832 253.626L86.1376 253.306Z" fill="#75CBFF"/>
</svg>
